<?xml version="1.0" encoding="UTF-8"?>
<svg id="Layer_1" data-name="Layer 1" xmlns="http://www.w3.org/2000/svg" viewBox="0 0 400 200">
  <defs>
    <style>
      .cls-1 {
        fill: #001f3f;
      }

      .cls-2 {
        fill: #2ecc71;
      }
    </style>
  </defs>
  <g>
    <path class="cls-1" d="m128.21,121.05c0,8.65-6.58,14.83-15.47,14.83h-28.24v-54.73h26.49c8.17,0,14.59,5.87,14.59,14.04,0,5-2.54,9.44-6.03,11.66,5.08,1.98,8.65,7.69,8.65,14.2Zm-31.81-28.79v10.31h11.5c2.78,0,5.08-2.22,5.08-5.16s-2.22-5.16-5.08-5.16h-11.5Zm19.2,26.65c0-3.33-2.54-5.95-5.87-5.95h-13.33v11.82h13.33c3.33,0,5.87-2.54,5.87-5.87Z"/>
    <path class="cls-2" d="m175.97,95.43v40.45h-11.58v-4.04c-3.09,3.17-7.3,5-12.22,5-11.1,0-19.51-9.12-19.51-21.18s8.41-21.18,19.51-21.18c4.92,0,9.12,1.82,12.22,5v-4.04h11.58Zm-11.58,20.23c0-5.71-4.2-9.99-9.91-9.99s-9.84,4.28-9.84,9.99,4.2,9.99,9.84,9.99,9.91-4.28,9.91-9.99Z"/>
    <path class="cls-1" d="m224.51,109.87v26.02h-11.58v-22.13c0-4.92-3.09-8.09-7.85-8.09s-8.33,3.25-8.33,8.25v21.97h-11.58v-40.45h11.58v4.04c3.17-3.25,7.3-5,12.29-5,9.28,0,15.47,6.11,15.47,15.39Z"/>
    <path class="cls-1" d="m247.59,122.87l-3.01,3.25v9.76h-11.58v-57.11h11.58v31.73l13.32-15.07h14.99l-17.13,18.64,17.69,21.81h-15.23l-10.63-13.01Z"/>
    <path class="cls-2" d="m315.49,95.43v40.45h-11.58v-4.04c-3.09,3.17-7.3,5-12.21,5-11.1,0-19.51-9.12-19.51-21.18s8.41-21.18,19.51-21.18c4.92,0,9.12,1.82,12.21,5v-4.04h11.58Zm-11.58,20.23c0-5.71-4.2-9.99-9.91-9.99s-9.84,4.28-9.84,9.99,4.2,9.99,9.84,9.99,9.91-4.28,9.91-9.99Z"/>
    <g>
      <circle class="cls-2" cx="294.44" cy="70.74" r="12.54"/>
      <circle class="cls-1" cx="262.08" cy="53.37" r="11"/>
      <circle class="cls-2" cx="226.53" cy="46.85" r="9.46"/>
      <circle class="cls-1" cx="191.01" cy="53.51" r="7.93"/>
      <circle class="cls-2" cx="158.71" cy="70.99" r="6.39"/>
    </g>
  </g>
  <g>
    <path class="cls-1" d="m115.91,159.26c.07-.53.54-.93,1.08-.93s.88.41.8.93-.54.93-1.06.93-.89-.41-.82-.93Z"/>
    <path class="cls-1" d="m119.34,159.26c.07-.53.54-.93,1.08-.93s.88.41.8.93-.54.93-1.06.93-.89-.41-.82-.93Z"/>
    <path class="cls-1" d="m122.76,159.26c.07-.53.54-.93,1.08-.93s.88.41.8.93-.54.93-1.06.93-.89-.41-.82-.93Z"/>
    <path class="cls-1" d="m134.77,156.37c-.31,2.22-2.16,3.89-4.29,3.89-1.24,0-2.17-.58-2.67-1.53l-.19,1.36h-1.25l1.47-10.5h1.25l-.61,4.42c.76-.95,1.87-1.53,3.11-1.53,2.13,0,3.49,1.68,3.18,3.89Zm-3.59-2.68c-1.52,0-2.83,1.15-3.03,2.68-.22,1.53.76,2.68,2.28,2.68s2.83-1.15,3.05-2.68c.2-1.53-.76-2.68-2.29-2.68Z"/>
    <path class="cls-1" d="m144.37,152.66l-1.05,7.44h-1.25l.19-1.34c-.76.93-1.88,1.52-3.11,1.52-2.13,0-3.47-1.68-3.17-3.89s2.14-3.89,4.27-3.89c1.24,0,2.17.58,2.67,1.53l.19-1.36h1.25Zm-1.78,3.76v-.04c.22-1.53-.76-2.68-2.28-2.68s-2.83,1.15-3.05,2.68c-.2,1.53.76,2.68,2.29,2.68s2.8-1.12,3.03-2.64Z"/>
    <path class="cls-1" d="m153.07,155.5l-.66,4.59h-1.25l.6-4.2c.19-1.33-.54-2.2-1.87-2.2s-2.32.82-2.57,2.06l-.61,4.35h-1.25l1.05-7.44h1.25l-.16,1.14c.7-.85,1.71-1.31,2.87-1.31,1.81,0,2.84,1.2,2.6,3.02Z"/>
    <path class="cls-1" d="m158.11,156.17l2.89,3.92h-1.66l-2.26-2.99-1.09,1.01-.28,1.98h-1.25l1.47-10.5h1.25l-.96,6.84,4.1-3.78h1.63l-3.84,3.52Z"/>
    <path class="cls-1" d="m163.15,152.66h1.25l-1.05,7.44h-1.25l1.05-7.44Zm.1-2.32c.07-.48.48-.83.96-.83s.79.35.72.83c-.06.47-.48.83-.95.83s-.79-.36-.73-.83Z"/>
    <path class="cls-1" d="m173.09,155.5l-.66,4.59h-1.25l.6-4.2c.19-1.33-.54-2.2-1.87-2.2s-2.32.82-2.57,2.06l-.61,4.35h-1.25l1.05-7.44h1.25l-.16,1.14c.7-.85,1.71-1.31,2.87-1.31,1.81,0,2.84,1.2,2.6,3.02Z"/>
    <path class="cls-1" d="m182.69,151.68l-.17,1.17h-.5c-.53,0-.95.32-1.05.8.39.55.57,1.27.47,2.06-.26,1.84-1.93,3.24-3.85,3.24-.58,0-1.09-.13-1.53-.35-.32.19-.55.51-.58.83-.07.52.29.86.92.86h2.73c1.4,0,2.29.76,2.26,2l-1.34.34c.07-.67-.45-1.11-1.31-1.11h-2.73c-1.25,0-1.98-.71-1.84-1.76.1-.7.55-1.36,1.18-1.68-.57-.58-.83-1.41-.7-2.36.25-1.84,1.91-3.22,3.85-3.22.67,0,1.27.18,1.74.47.26-.77.98-1.27,1.88-1.27h.58Zm-4.36,2c-1.21,0-2.23.88-2.39,2.03-.16,1.17.61,2.04,1.81,2.04s2.23-.88,2.39-2.04c.16-1.15-.61-2.03-1.81-2.03Z"/>
    <path class="cls-1" d="m188.63,157.91c-.1.8.28,1.15,1.04,1.15.41,0,.74-.12,1.08-.28l-.16,1.18c-.42.2-.83.31-1.36.31-1.44,0-2.07-.79-1.88-2.16l.61-4.32h-1.34l.16-1.14h1.34l.28-2h1.25l-.28,2h2.23l-.16,1.14h-2.23l-.58,4.11Z"/>
    <path class="cls-1" d="m199.78,155.5l-.66,4.59h-1.25l.6-4.2c.19-1.33-.54-2.2-1.85-2.2s-2.38.85-2.6,2.13l-.6,4.27h-1.25l1.47-10.5h1.25l-.6,4.26c.71-.89,1.72-1.37,2.89-1.37,1.81,0,2.84,1.2,2.6,3.02Z"/>
    <path class="cls-1" d="m208.98,156.37c-.02.18-.06.38-.1.55h-6.42c.07,1.3,1.02,2.19,2.45,2.19,1.09,0,2.1-.53,2.68-1.21l.77.74c-.9.99-2.22,1.62-3.66,1.62-2.33,0-3.82-1.69-3.51-3.92.32-2.2,2.23-3.87,4.46-3.87s3.65,1.66,3.33,3.89Zm-6.36-.58h5.1c-.04-1.28-.93-2.16-2.25-2.16s-2.45.89-2.86,2.16Z"/>
    <path class="cls-1" d="m213.98,157.15l.63-4.49h1.25l-.61,4.32c-.16,1.25.55,2.09,1.82,2.09s2.23-.83,2.39-2.09l.63-4.32h1.25l-.64,4.49c-.26,1.88-1.78,3.12-3.81,3.12s-3.18-1.24-2.92-3.12Z"/>
    <path class="cls-1" d="m229.92,155.5l-.66,4.59h-1.25l.6-4.2c.19-1.33-.54-2.2-1.87-2.2s-2.32.82-2.57,2.06l-.61,4.35h-1.25l1.05-7.44h1.25l-.16,1.14c.7-.85,1.71-1.31,2.87-1.31,1.81,0,2.84,1.2,2.6,3.02Z"/>
    <path class="cls-1" d="m239.7,156.37c-.31,2.22-2.16,3.89-4.29,3.89-1.24,0-2.17-.58-2.67-1.53l-.19,1.36h-1.25l1.47-10.5h1.25l-.61,4.42c.76-.95,1.87-1.53,3.11-1.53,2.13,0,3.49,1.68,3.18,3.89Zm-3.59-2.68c-1.52,0-2.83,1.15-3.03,2.68-.22,1.53.76,2.68,2.28,2.68s2.83-1.15,3.05-2.68c.2-1.53-.76-2.68-2.29-2.68Z"/>
    <path class="cls-1" d="m249.3,152.66l-1.05,7.44h-1.25l.19-1.34c-.76.93-1.88,1.52-3.11,1.52-2.13,0-3.47-1.68-3.17-3.89s2.14-3.89,4.27-3.89c1.24,0,2.17.58,2.67,1.53l.19-1.36h1.25Zm-1.78,3.76v-.04c.22-1.53-.76-2.68-2.28-2.68s-2.83,1.15-3.05,2.68c-.2,1.53.76,2.68,2.29,2.68s2.8-1.12,3.03-2.64Z"/>
    <path class="cls-1" d="m258,155.5l-.66,4.59h-1.25l.6-4.2c.19-1.33-.54-2.2-1.87-2.2s-2.32.82-2.57,2.06l-.61,4.35h-1.25l1.05-7.44h1.25l-.16,1.14c.7-.85,1.71-1.31,2.87-1.31,1.81,0,2.84,1.2,2.6,3.02Z"/>
    <path class="cls-1" d="m263.03,156.17l2.89,3.92h-1.66l-2.26-2.99-1.09,1.01-.28,1.98h-1.25l1.47-10.5h1.25l-.96,6.84,4.1-3.78h1.63l-3.84,3.52Z"/>
    <path class="cls-1" d="m274.37,156.37c-.02.18-.06.38-.1.55h-6.42c.07,1.3,1.02,2.19,2.45,2.19,1.09,0,2.1-.53,2.68-1.21l.77.74c-.9.99-2.22,1.62-3.66,1.62-2.33,0-3.82-1.69-3.51-3.92.32-2.2,2.23-3.87,4.46-3.87s3.65,1.66,3.33,3.89Zm-6.36-.58h5.1c-.04-1.28-.93-2.16-2.25-2.16s-2.45.89-2.86,2.16Z"/>
    <path class="cls-1" d="m284.34,149.59l-1.47,10.5h-1.25l.19-1.34c-.77.93-1.88,1.52-3.11,1.52-2.13,0-3.47-1.68-3.17-3.89s2.14-3.89,4.27-3.89c1.22,0,2.16.58,2.67,1.52l.61-4.41h1.25Zm-2.23,6.94l.04-.31c.15-1.46-.82-2.54-2.29-2.54s-2.83,1.15-3.05,2.68c-.2,1.53.76,2.68,2.29,2.68s2.73-1.07,3-2.52Z"/>
  </g>
</svg>