<?xml version="1.0" encoding="UTF-8"?>
<!DOCTYPE svg PUBLIC "-//W3C//DTD SVG 1.1//EN" "http://www.w3.org/Graphics/SVG/1.1/DTD/svg11.dtd">
<!-- Creator: CorelDRAW 2021 (64-Bit) -->
<svg xmlns="http://www.w3.org/2000/svg" xml:space="preserve" width="4.06445in" height="3.5295in" version="1.1" style="shape-rendering:geometricPrecision; text-rendering:geometricPrecision; image-rendering:optimizeQuality; fill-rule:evenodd; clip-rule:evenodd"
viewBox="0 0 4033.3 3502.45"
 xmlns:xlink="http://www.w3.org/1999/xlink"
 xmlns:xodm="http://www.corel.com/coreldraw/odm/2003">
 <defs>
  <style type="text/css">
   <![CDATA[
    .fil0 {fill:#376AEA}
    .fil1 {fill:#FF6B00}
   ]]>
  </style>
 </defs>
 <g id="Layer_x0020_1">
  <metadata id="CorelCorpID_0Corel-Layer"/>
  <g id="_2498635057408">
   <path class="fil0" d="M222.06 797.44c0,-52.07 42.24,-94.3 94.31,-94.3l221.11 0 0 -221.17c0,-52.07 42.23,-94.26 94.31,-94.26l131.23 0c52.13,0 94.37,42.18 94.37,94.26l0 221.17 221.11 0c52.07,0 94.31,42.23 94.31,94.3l0 131.23c0,52.13 -42.24,94.32 -94.31,94.32l-221.11 0 0 221.15c0,52.07 -42.24,94.31 -94.37,94.31l-131.23 0c-52.08,0 -94.31,-42.24 -94.31,-94.31l0 -221.15 -221.11 0c-52.07,0 -94.31,-42.19 -94.31,-94.32l0 -131.23zm778.85 990.22l161.24 -649.21c7.3,-35.45 39.76,-59.05 75.5,-59.05 35.77,0 66.93,24.36 75.56,59.05l277.43 1116.95 101.51 -408.71c8.63,-34.69 35.58,-58.8 71.33,-58.92l441.25 -0.11 161.24 -649.21c8.61,-34.69 39.79,-59.05 75.55,-59.05 35.76,0 66.93,24.36 75.56,59.05l277.41 1116.95 101.48 -408.71c9.12,-34.54 38.3,-58.43 75.55,-59.03l911.5 0c96.68,-191.15 150.28,-386.45 150.28,-589.15 0,-528.5 -357.31,-1198.51 -1045.94,-1198.51 -688.57,0 -970.72,562.05 -970.72,562.05 0,0 -282.1,-562.05 -970.72,-562.05 -688.62,0 -1045.92,670.01 -1045.92,1198.51 0,202.69 53.59,397.99 150.27,589.15l850.64 0z"/>
   <path class="fil1" d="M3032.42 1943.33l-162.36 653.74c-8.61,34.68 -39.79,59.04 -75.56,59.04 -35.75,0 -66.93,-24.36 -75.55,-59.04l-277.43 -1116.91 -100.35 404.08c-8.62,34.68 -39.8,59.09 -75.56,59.09l-437.06 0 -162.36 653.74c-8.62,34.68 -39.8,59.04 -75.55,59.04 -35.76,0 -66.94,-24.36 -75.56,-59.04l-277.43 -1116.91 -100.35 404.08c-8.61,34.68 -39.79,59.09 -75.56,59.09l-822.6 0c321.53,508.63 935.33,993.19 1642.9,1514.9 79.98,58.95 189.2,58.95 269.18,0 707.57,-521.71 1321.36,-1006.27 1642.87,-1514.9l-761.68 0z"/>
  </g>
 </g>
</svg>
