<svg xmlns="http://www.w3.org/2000/svg" xmlns:xlink="http://www.w3.org/1999/xlink" width="500" zoomAndPan="magnify" viewBox="0 0 375 374.999991" height="500" preserveAspectRatio="xMidYMid meet" version="1.0"><defs><g/><clipPath id="4418cf3fbf"><path d="M 98.402344 94.527344 L 260 94.527344 L 260 162.027344 L 98.402344 162.027344 Z M 98.402344 94.527344 " clip-rule="nonzero"/></clipPath><clipPath id="2b63dafa1b"><path d="M 147 111 L 275.402344 111 L 275.402344 162.027344 L 147 162.027344 Z M 147 111 " clip-rule="nonzero"/></clipPath><clipPath id="2d6dca2e46"><path d="M 99.410156 213.128906 L 261 213.128906 L 261 280.464844 L 99.410156 280.464844 Z M 99.410156 213.128906 " clip-rule="nonzero"/></clipPath><clipPath id="c4c954b882"><path d="M 148 213.128906 L 276.410156 213.128906 L 276.410156 264 L 148 264 Z M 148 213.128906 " clip-rule="nonzero"/></clipPath></defs><rect x="-37.5" width="450" fill="#ffffff" y="-37.499999" height="449.999989" fill-opacity="1"/><rect x="-37.5" width="450" fill="#4a95cf" y="-37.499999" height="449.999989" fill-opacity="1"/><g clip-path="url(#4418cf3fbf)"><path fill="#ffffff" d="M 200.1875 265.855469 C 155.300781 265.855469 118.914062 229.464844 118.914062 184.582031 C 118.914062 139.695312 155.300781 103.308594 200.1875 103.308594 C 223.429688 103.308594 244.386719 113.066406 259.203125 128.703125 C 242.703125 107.882812 217.199219 94.523438 188.574219 94.523438 C 138.839844 94.523438 98.519531 134.84375 98.519531 184.582031 C 98.519531 234.316406 138.839844 274.636719 188.574219 274.636719 C 217.199219 274.636719 242.703125 261.277344 259.203125 240.457031 C 244.386719 256.09375 223.429688 265.855469 200.1875 265.855469 " fill-opacity="1" fill-rule="nonzero"/></g><g clip-path="url(#2b63dafa1b)"><path fill="#ffffff" d="M 202.558594 111.652344 C 180.320312 111.652344 160.410156 121.605469 147.035156 137.296875 C 160.070312 125.097656 177.589844 117.628906 196.851562 117.628906 C 237.128906 117.628906 269.785156 150.277344 269.785156 190.554688 C 269.785156 208.59375 263.230469 225.101562 252.378906 237.832031 C 266.597656 224.523438 275.484375 205.589844 275.484375 184.582031 C 275.484375 144.300781 242.835938 111.652344 202.558594 111.652344 " fill-opacity="1" fill-rule="nonzero"/></g><g clip-path="url(#2d6dca2e46)"><path fill="#ffffff" d="M 201.191406 109.136719 C 156.308594 109.136719 119.921875 145.527344 119.921875 190.410156 C 119.921875 235.296875 156.308594 271.6875 201.191406 271.6875 C 224.4375 271.6875 245.394531 261.925781 260.210938 246.289062 C 243.710938 267.109375 218.207031 280.46875 189.582031 280.46875 C 139.847656 280.46875 99.527344 240.148438 99.527344 190.410156 C 99.527344 140.675781 139.847656 100.355469 189.582031 100.355469 C 218.207031 100.355469 243.710938 113.714844 260.210938 134.535156 C 245.394531 118.898438 224.4375 109.136719 201.191406 109.136719 " fill-opacity="1" fill-rule="nonzero"/></g><g clip-path="url(#c4c954b882)"><path fill="#ffffff" d="M 203.566406 263.339844 C 181.328125 263.339844 161.417969 253.390625 148.042969 237.695312 C 161.078125 249.894531 178.597656 257.363281 197.859375 257.363281 C 238.136719 257.363281 270.792969 224.714844 270.792969 184.4375 C 270.792969 166.398438 264.238281 149.890625 253.386719 137.160156 C 267.605469 150.46875 276.492188 169.402344 276.492188 190.410156 C 276.492188 230.691406 243.84375 263.339844 203.566406 263.339844 " fill-opacity="1" fill-rule="nonzero"/></g><g fill="#ffffff" fill-opacity="1"><g transform="translate(44.500984, 202.683692)"><g><path d="M 3.8125 -32.171875 L 18.421875 -32.171875 C 21.921875 -32.171875 25.007812 -31.503906 27.6875 -30.171875 C 30.363281 -28.835938 32.445312 -26.957031 33.9375 -24.53125 C 35.425781 -22.113281 36.171875 -19.296875 36.171875 -16.078125 C 36.171875 -12.867188 35.425781 -10.050781 33.9375 -7.625 C 32.445312 -5.207031 30.363281 -3.332031 27.6875 -2 C 25.007812 -0.664062 21.921875 0 18.421875 0 L 3.8125 0 Z M 18.0625 -6.109375 C 21.28125 -6.109375 23.84375 -7.003906 25.75 -8.796875 C 27.664062 -10.585938 28.625 -13.015625 28.625 -16.078125 C 28.625 -19.140625 27.664062 -21.566406 25.75 -23.359375 C 23.84375 -25.160156 21.28125 -26.0625 18.0625 -26.0625 L 11.265625 -26.0625 L 11.265625 -6.109375 Z M 18.0625 -6.109375 "/></g></g></g><g fill="#ffffff" fill-opacity="1"><g transform="translate(83.144549, 202.683692)"><g><path d="M 25 -6.890625 L 10.0625 -6.890625 L 7.21875 0 L -0.40625 0 L 13.921875 -32.171875 L 21.28125 -32.171875 L 35.65625 0 L 27.84375 0 Z M 22.65625 -12.546875 L 17.546875 -24.859375 L 12.453125 -12.546875 Z M 22.65625 -12.546875 "/></g></g></g><g fill="#ffffff" fill-opacity="1"><g transform="translate(119.031165, 202.683692)"><g><path d="M 10.484375 -26.09375 L 0.1875 -26.09375 L 0.1875 -32.171875 L 28.21875 -32.171875 L 28.21875 -26.09375 L 17.921875 -26.09375 L 17.921875 0 L 10.484375 0 Z M 10.484375 -26.09375 "/></g></g></g><g fill="#ffffff" fill-opacity="1"><g transform="translate(148.117295, 202.683692)"><g><path d="M 25 -6.890625 L 10.0625 -6.890625 L 7.21875 0 L -0.40625 0 L 13.921875 -32.171875 L 21.28125 -32.171875 L 35.65625 0 L 27.84375 0 Z M 22.65625 -12.546875 L 17.546875 -24.859375 L 12.453125 -12.546875 Z M 22.65625 -12.546875 "/></g></g></g><g fill="#ffffff" fill-opacity="1"><g transform="translate(184.003904, 202.683692)"><g><path d="M 25.546875 -16.59375 L 32.34375 -16.59375 L 32.34375 -3.53125 C 30.601562 -2.21875 28.582031 -1.207031 26.28125 -0.5 C 23.988281 0.195312 21.675781 0.546875 19.34375 0.546875 C 16.007812 0.546875 13.007812 -0.160156 10.34375 -1.578125 C 7.675781 -3.003906 5.582031 -4.976562 4.0625 -7.5 C 2.550781 -10.03125 1.796875 -12.890625 1.796875 -16.078125 C 1.796875 -19.265625 2.550781 -22.117188 4.0625 -24.640625 C 5.582031 -27.171875 7.6875 -29.148438 10.375 -30.578125 C 13.070312 -32.003906 16.109375 -32.71875 19.484375 -32.71875 C 22.304688 -32.71875 24.863281 -32.242188 27.15625 -31.296875 C 29.457031 -30.347656 31.390625 -28.96875 32.953125 -27.15625 L 28.171875 -22.75 C 25.867188 -25.164062 23.097656 -26.375 19.859375 -26.375 C 17.796875 -26.375 15.96875 -25.941406 14.375 -25.078125 C 12.789062 -24.222656 11.550781 -23.015625 10.65625 -21.453125 C 9.769531 -19.890625 9.328125 -18.097656 9.328125 -16.078125 C 9.328125 -14.085938 9.769531 -12.3125 10.65625 -10.75 C 11.550781 -9.1875 12.785156 -7.96875 14.359375 -7.09375 C 15.941406 -6.226562 17.742188 -5.796875 19.765625 -5.796875 C 21.898438 -5.796875 23.828125 -6.253906 25.546875 -7.171875 Z M 25.546875 -16.59375 "/></g></g></g><g fill="#ffffff" fill-opacity="1"><g transform="translate(220.120265, 202.683692)"><g><path d="M 24.3125 0 L 18.109375 -8.953125 L 11.265625 -8.953125 L 11.265625 0 L 3.8125 0 L 3.8125 -32.171875 L 17.734375 -32.171875 C 20.585938 -32.171875 23.0625 -31.691406 25.15625 -30.734375 C 27.257812 -29.785156 28.875 -28.4375 30 -26.6875 C 31.132812 -24.945312 31.703125 -22.882812 31.703125 -20.5 C 31.703125 -18.101562 31.128906 -16.039062 29.984375 -14.3125 C 28.835938 -12.582031 27.207031 -11.257812 25.09375 -10.34375 L 32.3125 0 Z M 24.171875 -20.5 C 24.171875 -22.300781 23.585938 -23.679688 22.421875 -24.640625 C 21.253906 -25.609375 19.554688 -26.09375 17.328125 -26.09375 L 11.265625 -26.09375 L 11.265625 -14.890625 L 17.328125 -14.890625 C 19.554688 -14.890625 21.253906 -15.378906 22.421875 -16.359375 C 23.585938 -17.335938 24.171875 -18.71875 24.171875 -20.5 Z M 24.171875 -20.5 "/></g></g></g><g fill="#ffffff" fill-opacity="1"><g transform="translate(254.582452, 202.683692)"><g><path d="M 3.8125 -32.171875 L 11.265625 -32.171875 L 11.265625 0 L 3.8125 0 Z M 3.8125 -32.171875 "/></g></g></g><g fill="#ffffff" fill-opacity="1"><g transform="translate(270.343277, 202.683692)"><g><path d="M 10.484375 -26.09375 L 0.1875 -26.09375 L 0.1875 -32.171875 L 28.21875 -32.171875 L 28.21875 -26.09375 L 17.921875 -26.09375 L 17.921875 0 L 10.484375 0 Z M 10.484375 -26.09375 "/></g></g></g><g fill="#ffffff" fill-opacity="1"><g transform="translate(299.429395, 202.683692)"><g><path d="M 19.25 -11.390625 L 19.25 0 L 11.8125 0 L 11.8125 -11.484375 L -0.640625 -32.171875 L 7.265625 -32.171875 L 15.859375 -17.875 L 24.453125 -32.171875 L 31.75 -32.171875 Z M 19.25 -11.390625 "/></g></g></g></svg>