<svg width="32" height="32" viewBox="0 0 32 32" fill="none" xmlns="http://www.w3.org/2000/svg">
<g clip-path="url(#clip0_5_655)">
<rect width="32" height="32" rx="8" fill="url(#paint0_linear_5_655)"/>
<path fill-rule="evenodd" clip-rule="evenodd" d="M16 2.03882C8.28948 2.03882 2.03885 8.28945 2.03885 16C2.03885 23.7105 8.28948 29.9612 16 29.9612C23.7106 29.9612 29.9612 23.7105 29.9612 16C29.9612 8.28945 23.7106 2.03882 16 2.03882ZM1.96118 16C1.96118 8.24655 8.24658 1.96115 16 1.96115C23.7535 1.96115 30.0389 8.24655 30.0389 16C30.0389 23.7534 23.7535 30.0388 16 30.0388C8.24658 30.0388 1.96118 23.7534 1.96118 16Z" fill="white" fill-opacity="0.46"/>
<path fill-rule="evenodd" clip-rule="evenodd" d="M16 12.0779C13.8338 12.0779 12.0777 13.834 12.0777 16.0002C12.0777 18.1665 13.8338 19.9225 16 19.9225C18.1662 19.9225 19.9223 18.1665 19.9223 16.0002C19.9223 13.834 18.1662 12.0779 16 12.0779ZM12 16.0002C12 13.7911 13.7909 12.0002 16 12.0002C18.2091 12.0002 20 13.7911 20 16.0002C20 18.2094 18.2091 20.0002 16 20.0002C13.7909 20.0002 12 18.2094 12 16.0002Z" fill="white" fill-opacity="0.46"/>
<path fill-rule="evenodd" clip-rule="evenodd" d="M16 13.3201C14.52 13.3201 13.3203 14.5198 13.3203 15.9997C13.3203 17.4796 14.52 18.6793 16 18.6793C17.4799 18.6793 18.6796 17.4796 18.6796 15.9997C18.6796 14.5198 17.4799 13.3201 16 13.3201ZM13.2427 15.9997C13.2427 14.4769 14.4772 13.2424 16 13.2424C17.5228 13.2424 18.7572 14.4769 18.7572 15.9997C18.7572 17.5225 17.5228 18.757 16 18.757C14.4772 18.757 13.2427 17.5225 13.2427 15.9997Z" fill="white" fill-opacity="0.46"/>
<path d="M15.9612 0H16.0389V32H15.9612V0Z" fill="white" fill-opacity="0.46"/>
<path d="M32 15.9609L32 16.0386L-3.39506e-09 16.0386L0 15.9609L32 15.9609Z" fill="white" fill-opacity="0.46"/>
<path d="M26.6021 0H26.6797V32H26.6021V0Z" fill="white" fill-opacity="0.46"/>
<path d="M10.6409 0H10.7185V32H10.6409V0Z" fill="white" fill-opacity="0.46"/>
<path d="M21.2815 0H21.3592V32H21.2815V0Z" fill="white" fill-opacity="0.46"/>
<path d="M5.32031 0H5.39798V32H5.32031V0Z" fill="white" fill-opacity="0.46"/>
<path d="M32 26.6016L32 26.6792L-3.39506e-09 26.6792L0 26.6016L32 26.6016Z" fill="white" fill-opacity="0.46"/>
<path d="M32 10.6406L32 10.7183L-3.39506e-09 10.7183L0 10.6406L32 10.6406Z" fill="white" fill-opacity="0.46"/>
<path d="M32 21.2812L32 21.3589L-3.39506e-09 21.3589L0 21.2812L32 21.2812Z" fill="white" fill-opacity="0.46"/>
<path d="M32 5.32031L32 5.39798L-3.39506e-09 5.39798L0 5.32031L32 5.32031Z" fill="white" fill-opacity="0.46"/>
<g filter="url(#filter0_ddf_5_655)">
<circle cx="16" cy="16" r="5" fill="#4F2CB3"/>
</g>
<path d="M13.3333 10H13.2C12.0799 10 11.5198 10 11.092 10.218C10.7157 10.4097 10.4097 10.7157 10.218 11.092C10 11.5198 10 12.0799 10 13.2V13.3333M13.3333 22H13.2C12.0799 22 11.5198 22 11.092 21.782C10.7157 21.5903 10.4097 21.2843 10.218 20.908C10 20.4802 10 19.9201 10 18.8V18.6667M22 13.3333V13.2C22 12.0799 22 11.5198 21.782 11.092C21.5903 10.7157 21.2843 10.4097 20.908 10.218C20.4802 10 19.9201 10 18.8 10H18.6667M22 18.6667V18.8C22 19.9201 22 20.4802 21.782 20.908C21.5903 21.2843 21.2843 21.5903 20.908 21.782C20.4802 22 19.9201 22 18.8 22H18.6667M13 13.3333V14.3333M19 13.3333V14.3333M15.3333 16.4001C15.8667 16.4001 16.3333 15.9334 16.3333 15.4001V13.3333M18.1335 18.1333C16.9335 19.3333 15.0001 19.3333 13.8001 18.1333" stroke="white" stroke-width="1.5" stroke-linecap="round" stroke-linejoin="round"/>
</g>
<defs>
<filter id="filter0_ddf_5_655" x="2" y="2" width="28" height="28" filterUnits="userSpaceOnUse" color-interpolation-filters="sRGB">
<feFlood flood-opacity="0" result="BackgroundImageFix"/>
<feColorMatrix in="SourceAlpha" type="matrix" values="0 0 0 0 0 0 0 0 0 0 0 0 0 0 0 0 0 0 127 0" result="hardAlpha"/>
<feOffset dy="1"/>
<feGaussianBlur stdDeviation="1"/>
<feColorMatrix type="matrix" values="0 0 0 0 0.0627451 0 0 0 0 0.0941176 0 0 0 0 0.156863 0 0 0 0.06 0"/>
<feBlend mode="normal" in2="BackgroundImageFix" result="effect1_dropShadow_5_655"/>
<feColorMatrix in="SourceAlpha" type="matrix" values="0 0 0 0 0 0 0 0 0 0 0 0 0 0 0 0 0 0 127 0" result="hardAlpha"/>
<feOffset dy="1"/>
<feGaussianBlur stdDeviation="1.5"/>
<feColorMatrix type="matrix" values="0 0 0 0 0.0627451 0 0 0 0 0.0941176 0 0 0 0 0.156863 0 0 0 0.1 0"/>
<feBlend mode="normal" in2="effect1_dropShadow_5_655" result="effect2_dropShadow_5_655"/>
<feBlend mode="normal" in="SourceGraphic" in2="effect2_dropShadow_5_655" result="shape"/>
<feGaussianBlur stdDeviation="4.5" result="effect3_foregroundBlur_5_655"/>
</filter>
<linearGradient id="paint0_linear_5_655" x1="16" y1="0" x2="16" y2="32" gradientUnits="userSpaceOnUse">
<stop stop-color="#5100FF"/>
<stop offset="1" stop-color="#8666CC"/>
</linearGradient>
<clipPath id="clip0_5_655">
<rect width="32" height="32" rx="8" fill="white"/>
</clipPath>
</defs>
</svg>
