<?xml version="1.0" standalone="no"?>
<!DOCTYPE svg PUBLIC "-//W3C//DTD SVG 20010904//EN"
 "http://www.w3.org/TR/2001/REC-SVG-20010904/DTD/svg10.dtd">
<svg version="1.0" xmlns="http://www.w3.org/2000/svg"
 width="521.000000pt" height="479.000000pt" viewBox="0 0 521.000000 479.000000"
 preserveAspectRatio="xMidYMid meet">

<g transform="translate(0.000000,479.000000) scale(0.100000,-0.100000)"
fill="#000000" stroke="none">
<path d="M2401 4681 c-7 -4 -30 -8 -52 -9 -22 -1 -49 -6 -59 -12 -13 -7 -20
-6 -23 3 -4 8 -8 8 -14 2 -4 -5 -17 -12 -28 -13 -11 -2 -21 -8 -23 -13 -2 -5
-12 -9 -22 -9 -10 0 -22 -5 -25 -10 -4 -6 -11 -8 -16 -4 -5 3 -17 0 -26 -7
-20 -17 -54 -37 -75 -45 -10 -3 -18 -11 -18 -16 0 -6 -9 -8 -20 -5 -11 3 -20
1 -20 -4 0 -5 -11 -11 -25 -15 -14 -3 -25 -9 -25 -14 0 -4 -9 -11 -19 -16 -28
-13 -101 -75 -101 -86 0 -4 -20 -29 -45 -53 -39 -39 -67 -86 -104 -175 -6 -14
-15 -32 -20 -40 -30 -50 -55 -117 -57 -148 0 -20 -4 -44 -8 -53 -4 -8 -5 -35
-2 -60 2 -24 10 -115 17 -201 10 -116 16 -158 26 -158 15 0 18 -36 3 -45 -5
-3 -10 -40 -10 -81 0 -69 -1 -74 -22 -74 l-21 0 21 -23 c12 -13 22 -30 23 -38
0 -8 4 -4 9 9 12 28 30 201 23 219 -3 7 -1 13 3 13 5 0 10 19 10 43 3 76 21
122 69 168 25 24 45 49 45 55 0 7 9 22 20 35 15 19 19 20 20 8 0 -12 8 -16 26
-15 23 1 25 4 20 30 -5 22 -1 35 15 52 13 13 19 30 15 39 -9 24 24 97 58 126
24 21 38 26 64 22 20 -4 32 -1 32 6 0 6 7 11 16 11 15 0 68 20 108 42 32 17
55 18 49 2 -6 -17 42 -20 52 -4 4 6 15 8 25 5 12 -4 23 1 30 12 11 17 11 17 6
-1 -6 -16 -2 -18 26 -12 17 3 41 14 52 24 10 9 16 11 12 5 -9 -16 30 -18 39
-3 3 6 -1 10 -9 10 -23 0 -20 17 4 23 13 3 20 0 20 -10 0 -8 5 -11 10 -8 6 3
10 -4 10 -17 0 -20 5 -23 39 -22 21 1 48 5 59 8 11 4 29 3 39 -2 49 -26 170
-55 238 -58 22 -1 45 -2 52 -3 6 0 30 -19 54 -42 32 -30 44 -37 50 -27 7 11 9
11 9 0 0 -7 4 -11 9 -7 13 7 48 -31 68 -72 8 -18 19 -33 24 -33 5 0 9 -7 9
-15 0 -8 9 -19 20 -25 11 -6 20 -15 20 -20 0 -5 -9 -7 -20 -5 -22 4 -23 -1
-14 -56 5 -31 13 -40 45 -55 24 -10 42 -26 45 -40 9 -35 31 -38 26 -3 -2 16 0
29 4 29 5 0 10 -21 11 -46 1 -26 9 -67 17 -93 8 -25 18 -84 21 -131 4 -47 13
-152 20 -233 11 -123 11 -162 0 -236 -16 -107 -36 -152 -65 -144 -14 4 -20 0
-20 -11 0 -16 -11 -20 -39 -17 -7 2 -11 -1 -8 -6 3 -4 -7 -9 -21 -9 -15 -1
-47 -4 -72 -6 -45 -5 -85 7 -127 38 l-22 16 5 -49 5 -48 -25 28 c-33 36 -53
34 -47 -5 0 -4 -12 -1 -27 7 -15 7 -46 21 -69 30 -23 10 -44 24 -47 31 -3 8
-13 14 -23 14 -16 1 -15 3 4 19 88 73 85 69 72 93 -6 13 -19 31 -28 41 -15 18
-16 18 -21 -5 -7 -25 -20 -26 -111 -13 -38 6 -54 3 -97 -19 -68 -34 -99 -33
-152 6 -47 35 -98 42 -168 25 -24 -6 -33 -5 -36 5 -16 51 -17 53 -26 38 -8
-13 -10 -12 -10 3 0 9 11 23 25 29 14 6 25 15 25 19 0 4 20 19 45 33 53 31
151 167 147 203 -2 15 6 27 25 39 15 10 30 20 33 22 8 6 -25 22 -47 22 -12 0
-24 -6 -26 -12 -4 -8 -6 -7 -6 3 -1 10 13 23 35 31 l35 14 -41 14 c-28 9 -45
22 -51 38 -12 31 -11 34 4 26 6 -3 0 4 -14 17 -15 13 -30 38 -33 54 -6 28 -5
29 9 11 8 -11 15 -15 15 -9 0 16 -30 44 -40 38 -5 -3 -11 3 -14 13 -8 23 -92
46 -158 43 -27 -1 -48 2 -48 7 0 6 -14 7 -34 2 -19 -4 -41 -3 -51 3 -29 16
-77 12 -126 -10 -50 -22 -78 -55 -105 -123 -10 -24 -26 -52 -35 -61 -10 -10
-16 -28 -14 -40 2 -12 -2 -33 -9 -48 -16 -31 -22 -216 -7 -225 6 -4 25 -1 43
7 18 7 43 12 56 11 12 -1 22 4 22 9 0 6 21 -9 48 -34 51 -50 91 -79 106 -79 6
0 -11 13 -37 30 -84 53 -134 163 -126 278 3 44 1 52 -13 52 -10 0 -18 7 -18
16 0 12 7 15 25 12 18 -4 29 1 39 16 36 55 192 104 275 85 22 -5 44 -8 48 -7
32 7 91 -20 134 -61 42 -41 48 -52 54 -104 7 -56 2 -123 -10 -135 -3 -4 -15
-1 -25 6 -17 10 -20 10 -20 -3 0 -9 7 -18 15 -21 22 -9 19 -21 -19 -73 -47
-63 -116 -98 -231 -114 -102 -15 -100 -29 5 -28 38 0 71 -3 74 -8 3 -5 -5 -20
-19 -35 -18 -19 -21 -28 -12 -35 7 -6 34 -29 60 -52 l48 -43 -28 -14 c-15 -9
-46 -19 -68 -24 -22 -5 -48 -11 -57 -14 -12 -4 -18 0 -18 10 0 22 -17 20 -37
-3 -16 -20 -39 -19 -27 0 8 13 23 69 19 69 -2 0 -11 -8 -21 -17 -10 -10 -20
-18 -23 -19 -11 -1 -66 -24 -83 -34 -11 -6 -19 -6 -24 1 -6 11 -38 25 -80 35
-19 5 -23 3 -18 -10 4 -12 0 -16 -15 -16 -14 0 -21 -6 -21 -20 0 -11 -5 -20
-11 -20 -7 0 -9 10 -7 24 3 15 0 27 -8 30 -8 3 -14 -1 -14 -10 0 -8 -4 -13 -9
-10 -5 4 -12 0 -14 -6 -3 -8 -6 -6 -6 5 -1 10 -5 15 -11 12 -5 -3 -10 2 -10
12 0 11 -6 25 -12 32 -10 9 -13 60 -13 186 0 95 -2 172 -4 170 -2 -3 -12 7
-23 20 -11 14 -23 23 -28 20 -4 -3 -11 2 -14 11 -4 9 -9 14 -13 11 -3 -4 -11
1 -18 10 -11 15 -15 14 -39 -10 -23 -23 -26 -34 -26 -99 0 -40 9 -116 21 -168
11 -52 21 -100 21 -107 1 -7 4 -11 7 -11 15 3 71 -38 66 -49 -2 -7 0 -15 6
-18 5 -4 7 -10 4 -15 -3 -5 2 -24 11 -42 26 -49 33 -83 22 -103 -8 -13 -7 -16
1 -11 7 4 11 -1 11 -13 0 -11 -4 -22 -10 -26 -10 -6 -2 -34 17 -53 6 -7 10
-19 6 -27 -3 -8 2 -26 11 -40 9 -13 16 -34 16 -46 0 -47 43 -162 71 -188 15
-15 29 -33 31 -41 2 -8 10 -20 19 -27 21 -16 37 -105 39 -213 3 -168 7 -230
17 -242 6 -7 13 -26 17 -42 4 -15 14 -35 21 -43 18 -17 19 -33 4 -33 -5 0 -7
4 -4 10 3 6 -1 7 -9 4 -10 -4 -16 -1 -16 7 0 7 -3 10 -6 7 -6 -6 10 -37 37
-75 26 -36 157 -143 249 -204 109 -73 199 -129 205 -129 3 0 24 -12 47 -26 51
-33 100 -27 161 17 23 16 93 65 155 108 143 98 237 183 306 275 93 123 99 144
103 344 4 184 5 191 60 252 13 14 23 30 23 37 0 7 7 13 15 13 8 0 15 9 15 19
0 11 7 27 16 35 8 9 12 16 8 16 -4 0 1 7 12 16 10 8 14 13 7 10 -6 -4 -14 -2
-18 4 -3 6 4 11 17 11 18 1 19 2 5 6 -19 5 -17 30 2 25 6 -1 11 5 11 13 0 26
1 30 14 45 8 8 14 31 14 50 5 129 9 150 33 172 37 34 103 120 106 136 1 8 6
18 12 21 5 4 12 18 15 33 2 15 14 62 26 105 30 108 18 243 -20 243 -28 0 -50
-11 -50 -25 0 -7 -8 -19 -17 -26 -16 -12 -17 -12 -5 2 11 14 9 16 -15 13 -16
-2 -22 -1 -15 2 6 3 10 9 7 14 -3 4 9 13 25 20 17 7 30 16 30 21 0 8 -12 7
-62 -6 l-28 -7 0 88 c0 49 -4 96 -10 104 -5 8 -5 19 -1 25 21 29 71 247 78
340 5 64 1 144 -7 153 -1 1 -3 5 -5 10 -1 4 -7 20 -13 35 -7 15 -14 47 -17 70
-7 53 -52 145 -76 152 -9 3 -20 16 -23 28 -3 12 -27 46 -54 75 -27 29 -47 54
-45 56 2 2 -12 11 -32 20 -19 9 -35 23 -35 30 0 7 -34 35 -76 61 -42 27 -82
54 -89 61 -7 7 -25 16 -41 20 -16 4 -35 13 -42 21 -7 7 -22 13 -33 13 -11 0
-22 6 -25 14 -5 12 -22 18 -93 32 -8 1 -35 9 -60 17 -48 16 -219 21 -240 8z
m-151 -515 c0 -2 -7 -7 -16 -10 -8 -3 -12 -2 -9 4 6 10 25 14 25 6z m988 -375
c7 -20 -34 5 -42 25 -6 15 -4 15 16 2 12 -8 24 -20 26 -27z m-16 -63 c-7 -7
-12 -8 -12 -2 0 6 3 14 7 17 3 4 9 5 12 2 2 -3 -1 -11 -7 -17z m-837 -407 c3
-5 1 -12 -5 -16 -5 -3 -10 1 -10 9 0 18 6 21 15 7z m-821 -193 c0 -24 -3 -56
-7 -71 -6 -24 -5 -28 10 -25 14 2 18 -4 18 -27 0 -25 -4 -30 -23 -29 -18 1
-22 -4 -20 -20 2 -12 9 -20 15 -19 7 2 10 -4 7 -12 -6 -15 -11 -13 -60 32 -28
25 -32 76 -9 99 8 8 12 21 9 28 -3 8 -1 17 5 21 6 3 11 14 11 23 0 15 -2 15
-11 2 -8 -11 -9 -8 -4 15 16 73 58 61 59 -17z m-90 10 c-9 -59 -14 -60 -14 -5
0 26 5 47 10 47 6 0 8 -16 4 -42z m1966 -115 c1 -26 1 -50 0 -53 -1 -3 -3 -16
-4 -30 -3 -34 -16 -70 -26 -70 -4 0 -6 8 -3 19 2 10 -3 25 -12 35 -10 10 -12
16 -4 16 11 0 11 14 -7 106 -4 22 -1 38 12 52 l17 21 13 -24 c7 -14 13 -46 14
-72z m50 41 c0 -16 -6 -38 -13 -47 -11 -15 -13 -11 -14 30 -1 26 0 55 3 63 8
23 24 -8 24 -46z m-1055 -204 c4 -6 11 -8 16 -5 18 11 44 -5 57 -35 11 -24 25
-33 70 -47 31 -9 64 -18 72 -19 63 -11 79 -16 90 -29 10 -12 9 -16 -4 -21 -9
-3 -14 -9 -12 -13 2 -3 -22 -7 -53 -8 -73 -3 -174 -13 -180 -18 -2 -3 8 -9 22
-14 14 -5 28 -15 32 -20 4 -8 12 -8 26 -1 13 7 25 7 38 0 14 -7 28 -7 47 0 25
10 30 8 56 -22 33 -39 33 -40 8 -63 -26 -24 -25 -29 9 -42 24 -9 31 -7 45 8 9
11 24 19 35 19 10 0 24 7 31 15 8 10 21 13 34 9 27 -8 57 -34 51 -45 -3 -4 -1
-10 5 -14 6 -4 8 -11 4 -16 -4 -6 -11 -6 -20 2 -11 9 -14 8 -14 -3 0 -8 -11
-20 -25 -26 -33 -15 -32 -16 -38 10 -6 20 -8 20 -46 -15 -33 -30 -46 -35 -69
-31 -20 4 -45 -3 -88 -26 -37 -19 -82 -33 -116 -37 -59 -6 -150 11 -171 32 -7
6 -33 23 -57 37 -30 17 -44 31 -42 42 3 14 0 15 -17 4 -15 -9 -17 -15 -9 -25
25 -31 -10 -9 -70 44 -54 48 -64 54 -58 33 4 -14 10 -37 13 -52 3 -16 9 -28
14 -28 5 0 9 -4 9 -9 0 -15 -50 13 -56 32 -3 9 -10 15 -15 12 -5 -4 -16 1 -25
9 -8 9 -13 16 -9 16 3 0 1 9 -5 19 -6 12 -6 21 -1 23 6 2 12 16 15 32 8 45 22
53 49 28 26 -25 43 -28 50 -9 2 6 8 9 12 4 5 -4 0 -14 -11 -22 -12 -9 -14 -14
-6 -15 8 0 26 -9 42 -20 24 -17 30 -18 46 -5 19 13 19 14 -1 21 -28 10 -55 35
-55 50 0 17 59 46 82 39 9 -4 25 -2 35 3 10 6 26 7 41 1 19 -7 29 -6 42 6 21
19 65 11 79 -13 5 -8 13 -12 21 -7 9 6 9 9 -1 16 -11 7 -9 9 5 9 40 0 6 11
-50 16 -36 3 -62 11 -67 20 -4 8 -14 14 -21 14 -20 0 -76 30 -76 41 0 5 -18 7
-42 3 -32 -5 -40 -4 -32 5 6 6 38 13 71 15 34 3 71 9 82 16 12 6 26 8 31 5 5
-3 11 -1 15 5 4 7 14 5 27 -4 17 -13 23 -13 34 -1 19 19 18 25 -5 25 -23 0
-35 15 -27 35 6 17 22 20 31 5z m-635 -40 c0 -5 -2 -10 -4 -10 -3 0 -8 5 -11
10 -3 6 -1 10 4 10 6 0 11 -4 11 -10z m1615 -10 c-3 -5 -12 -10 -18 -10 -7 0
-6 4 3 10 19 12 23 12 15 0z m-1575 -10 c0 -5 -2 -10 -4 -10 -3 0 -8 5 -11 10
-3 6 -1 10 4 10 6 0 11 -4 11 -10z m-127 -49 c-4 -17 -8 -19 -14 -9 -12 18
-11 31 1 23 6 -3 10 -1 10 6 0 7 2 10 5 8 2 -3 2 -15 -2 -28z m137 5 c0 -2 -3
-11 -6 -20 -9 -23 -34 -20 -34 4 0 13 7 20 20 20 11 0 20 -2 20 -4z m1155 -67
c4 -12 2 -26 -4 -32 -8 -8 -11 -7 -11 5 0 9 -8 19 -17 22 -15 6 -15 8 -3 16
22 14 28 12 35 -11z m-1115 -39 c0 -11 -4 -20 -10 -20 -5 0 -10 9 -10 21 0 11
-4 17 -10 14 -5 -3 -10 1 -10 10 0 13 4 14 20 5 11 -6 20 -20 20 -30z m1155
-29 c-9 -18 -13 -36 -10 -41 3 -5 1 -11 -4 -14 -5 -3 -8 -14 -7 -24 2 -9 -2
-2 -7 16 -9 26 -14 31 -30 26 -17 -5 -19 -3 -12 12 4 11 8 24 8 31 0 8 5 8 20
0 16 -10 21 -8 34 11 22 32 28 20 8 -17z m-195 -195 c0 -3 -4 -8 -10 -11 -5
-3 -10 -1 -10 4 0 6 5 11 10 11 6 0 10 -2 10 -4z m-495 -146 c0 -3 62 -10 115
-14 75 -6 152 -16 170 -23 8 -4 21 -5 28 -4 6 1 12 -7 12 -18 0 -16 -9 -22
-40 -27 -25 -4 -40 -12 -40 -21 0 -8 -6 -13 -12 -12 -16 3 -51 -11 -59 -23 -7
-11 -41 1 -33 13 3 5 -2 6 -10 3 -9 -3 -16 -1 -16 5 0 6 -7 11 -15 11 -8 0
-15 -7 -15 -16 0 -14 -3 -14 -15 -4 -8 7 -15 8 -15 2 0 -19 -39 -20 -61 -1
-12 10 -30 19 -40 19 -10 0 -27 10 -39 22 -11 12 -20 18 -20 13 0 -14 -29 28
-30 43 0 6 9 12 20 12 11 0 23 7 26 15 5 11 17 14 48 10 22 -2 41 -4 41 -5z
m129 -876 c15 -14 16 -14 16 0 0 9 4 16 9 16 25 0 41 -14 41 -36 0 -16 6 -24
18 -24 14 -1 12 -4 -8 -20 -14 -11 -32 -27 -41 -35 -21 -20 -76 -36 -96 -28
-11 4 -14 2 -9 -5 15 -25 -5 -10 -49 35 -44 47 -56 73 -34 73 8 0 8 5 -1 15
-10 12 -10 15 2 15 8 0 19 -5 25 -11 9 -9 16 -8 28 5 21 20 79 21 99 0z"/>
<path d="M2310 2546 c0 -2 7 -6 15 -10 8 -3 15 -1 15 4 0 6 -7 10 -15 10 -8 0
-15 -2 -15 -4z"/>
<path d="M2739 2433 c-13 -16 -12 -17 4 -4 9 7 17 15 17 17 0 8 -8 3 -21 -13z"/>
<path d="M2930 4030 c0 -5 5 -10 11 -10 5 0 7 5 4 10 -3 6 -8 10 -11 10 -2 0
-4 -4 -4 -10z"/>
<path d="M2957 3823 c-3 -5 -2 -15 2 -22 7 -10 10 -10 16 -1 4 6 3 16 -3 22
-5 5 -12 6 -15 1z"/>
<path d="M3090 3800 c0 -5 5 -10 11 -10 5 0 7 5 4 10 -3 6 -8 10 -11 10 -2 0
-4 -4 -4 -10z"/>
<path d="M3025 3641 c-3 -5 -64 -10 -135 -9 -125 0 -156 -5 -145 -22 3 -4 -8
-10 -25 -12 -19 -3 -31 0 -35 9 -2 8 -9 11 -15 8 -7 -4 -7 -13 0 -26 6 -11 15
-17 19 -15 5 3 16 -3 26 -14 17 -19 17 -20 -6 -29 -13 -5 -35 -23 -48 -40 -13
-17 -31 -31 -39 -31 -12 0 -12 -2 -1 -17 12 -15 12 -16 -5 -10 -11 4 -40 5
-65 1 l-45 -7 45 -16 c24 -9 45 -24 47 -33 3 -13 -5 -15 -45 -11 l-48 5 32
-27 c27 -22 31 -29 23 -50 -7 -18 -4 -29 11 -46 11 -13 19 -32 18 -44 -1 -11
4 -40 11 -66 12 -40 17 -46 54 -58 23 -7 57 -24 76 -39 53 -42 111 -64 156
-60 l39 4 -40 8 c-22 5 -49 15 -60 23 -18 13 -17 14 20 9 l40 -6 -45 13 c-62
19 -121 58 -159 106 -30 38 -38 57 -56 136 l-6 30 22 -24 c16 -17 19 -25 9
-31 -7 -4 -8 -10 -3 -13 10 -7 63 38 63 53 0 6 10 10 23 10 27 0 61 36 53 57
-5 12 -9 12 -28 -1 -27 -19 -61 -21 -56 -3 2 6 21 20 42 31 28 14 34 21 24 27
-9 6 -10 9 0 9 7 0 12 13 12 33 0 24 -3 28 -10 17 -11 -17 -30 -20 -47 -7 -21
15 -40 -9 -53 -66 -19 -82 -21 -87 -36 -87 -18 0 -18 24 1 89 17 55 47 89 110
121 34 17 40 18 66 4 16 -8 29 -10 29 -5 0 5 -6 12 -12 15 -7 3 28 4 78 1 68
-3 106 -11 145 -28 56 -25 109 -70 109 -92 0 -7 7 -16 16 -19 9 -4 12 -11 7
-18 -4 -7 -8 -38 -9 -68 -3 -92 -62 -195 -139 -242 -16 -10 -25 -18 -18 -18 7
0 38 21 68 46 54 43 57 45 71 27 13 -17 14 -17 7 2 -6 18 -5 18 10 6 9 -7 17
-20 17 -27 0 -8 6 -14 13 -14 14 0 20 -52 6 -61 -11 -7 -1 -39 12 -39 5 0 9 5
9 11 0 5 5 7 11 3 6 -3 8 -17 5 -30 -4 -13 -3 -24 2 -24 4 0 15 26 25 58 17
58 18 208 1 338 -5 46 -3 58 12 76 19 21 19 21 -8 14 -24 -5 -28 -3 -34 21 -9
44 -36 95 -70 132 -42 45 -133 77 -149 52z m34 -109 c13 -13 13 -14 -4 -9 -11
3 -32 9 -47 13 -16 3 -25 10 -22 15 7 12 55 0 73 -19z m161 -63 c0 -6 -4 -7
-10 -4 -5 3 -10 11 -10 16 0 6 5 7 10 4 6 -3 10 -11 10 -16z m-610 -176 c0
-22 -2 -25 -10 -13 -13 20 -13 40 0 40 6 0 10 -12 10 -27z m30 -143 c0 -5 -4
-10 -10 -10 -5 0 -10 5 -10 10 0 6 5 10 10 10 6 0 10 -4 10 -10z"/>
<path d="M2106 3551 c-3 -5 5 -11 19 -13 14 -3 26 0 29 8 6 16 -39 20 -48 5z"/>
<path d="M1890 3501 c0 -10 -9 -25 -20 -32 -11 -8 -21 -23 -23 -34 -1 -11 -6
-26 -11 -33 -12 -20 2 -62 22 -63 79 -4 94 -4 98 3 3 5 10 6 15 3 5 -4 9 -1 9
4 0 6 -4 11 -10 11 -5 0 -10 5 -10 10 0 6 7 10 15 10 10 0 15 10 15 26 0 21
-3 24 -14 15 -17 -15 -26 5 -26 60 0 37 -2 39 -30 39 -23 0 -30 -5 -30 -19z"/>
<path d="M2098 3503 c7 -3 16 -2 19 1 4 3 -2 6 -13 5 -11 0 -14 -3 -6 -6z"/>
<path d="M2215 3459 c-7 -20 14 -49 37 -49 7 0 24 -9 38 -20 25 -19 60 -27 60
-12 0 16 -18 33 -36 34 -13 1 -21 10 -22 26 -3 34 -8 39 -41 40 -21 0 -32 -5
-36 -19z"/>
<path d="M2378 3463 c7 -3 16 -2 19 1 4 3 -2 6 -13 5 -11 0 -14 -3 -6 -6z"/>
<path d="M2085 3422 c-2 -2 -1 -11 2 -19 4 -11 2 -14 -8 -11 -8 3 -13 11 -11
17 2 12 -17 14 -42 5 -23 -9 -20 -40 7 -56 29 -18 102 -9 102 12 0 11 10 14
39 13 33 -2 36 -1 26 12 -7 8 -21 15 -31 15 -11 0 -19 5 -19 10 0 9 -56 11
-65 2z"/>
<path d="M3025 3412 c6 -4 11 -13 13 -21 2 -11 0 -12 -11 -2 -12 9 -16 8 -21
-4 -6 -17 -38 -20 -65 -5 -10 5 -35 7 -55 3 -37 -6 -44 -20 -30 -57 6 -16 34
-23 34 -8 0 7 47 32 62 32 4 0 8 -8 8 -17 0 -14 5 -12 24 10 27 31 56 36 56 8
0 -17 3 -18 24 -8 16 8 21 16 15 22 -5 5 -9 17 -9 26 0 16 -19 29 -43 29 -8 0
-8 -3 -2 -8z m-105 -52 c0 -5 -4 -10 -9 -10 -6 0 -13 5 -16 10 -3 6 1 10 9 10
9 0 16 -4 16 -10z"/>
<path d="M2057 3290 c-4 -15 -14 -20 -41 -20 -25 0 -34 -4 -30 -13 6 -17 123
-6 179 17 l40 16 -58 -4 c-40 -3 -61 0 -71 9 -12 12 -15 11 -19 -5z"/>
<path d="M2258 3273 c6 -2 18 -2 25 0 6 3 1 5 -13 5 -14 0 -19 -2 -12 -5z"/>
<path d="M2975 3270 c-3 -5 -1 -10 4 -10 6 0 11 5 11 10 0 6 -2 10 -4 10 -3 0
-8 -4 -11 -10z"/>
<path d="M2851 3246 c-8 -10 3 -17 57 -35 64 -21 114 -24 140 -7 7 4 18 3 25
-2 8 -6 22 -3 42 9 17 11 26 19 20 19 -5 1 -39 3 -75 5 -36 2 -86 4 -113 4
-26 0 -56 5 -66 11 -14 7 -22 6 -30 -4z"/>
<path d="M3172 1795 c18 -66 36 -123 42 -127 7 -5 7 -8 1 -8 -6 0 -9 -38 -9
-97 2 -88 -12 -228 -31 -313 -7 -31 -7 -32 17 -17 12 8 34 18 48 21 14 3 6 -3
-18 -14 -46 -21 -47 -24 -56 -87 -5 -36 -4 -41 12 -36 19 5 118 -34 109 -43
-3 -3 -19 2 -37 11 -47 24 -92 17 -101 -18 -5 -19 -4 -25 4 -20 9 5 9 3 1 -8
-11 -14 -25 -83 -30 -145 -1 -17 -5 -42 -9 -54 -5 -15 -4 -20 4 -16 6 4 11 2
11 -3 0 -6 -4 -11 -10 -11 -5 0 -10 -7 -10 -14 0 -9 22 -22 55 -32 30 -10 55
-21 55 -25 0 -5 -19 -2 -41 6 -58 21 -79 19 -79 -5 0 -13 7 -20 19 -20 26 0
75 -19 68 -26 -3 -3 -21 0 -41 7 -20 7 -38 10 -41 7 -3 -3 -14 -68 -25 -144
-11 -76 -22 -149 -25 -160 -4 -16 1 -24 18 -29 12 -4 25 -7 30 -6 4 1 7 -4 7
-10 0 -5 5 -7 10 -4 6 3 10 1 10 -4 0 -14 -1 -14 -44 4 -35 15 -36 15 -36 -8
0 -18 8 -26 37 -35 20 -6 41 -8 46 -5 6 3 7 1 3 -5 -4 -7 -2 -12 3 -12 6 0 11
-5 11 -10 0 -6 -18 -1 -40 10 -21 11 -45 20 -52 20 -9 0 -19 -33 -31 -104 -10
-57 -17 -108 -15 -112 1 -5 -2 -24 -6 -43 -6 -24 -4 -36 5 -42 23 -14 61 -10
75 8 13 17 14 17 7 -2 -6 -18 -5 -19 12 -5 11 9 16 10 11 3 -5 -9 -1 -13 12
-13 16 0 25 17 47 93 15 50 28 106 29 124 0 17 4 29 9 26 4 -2 10 10 13 27 4
17 11 33 17 37 10 6 8 -3 -9 -58 -3 -9 1 -19 11 -22 9 -4 17 -1 19 6 23 81 80
256 83 253 5 -4 -16 -79 -78 -276 -65 -209 -65 -210 -46 -210 11 0 24 26 43
88 14 48 27 92 28 99 3 16 16 30 16 17 0 -6 -11 -48 -25 -95 -13 -46 -25 -89
-25 -96 0 -14 209 -15 228 0 8 6 12 6 12 -2 0 -13 37 -11 59 3 10 6 12 5 7 -2
-5 -9 30 -12 138 -10 86 0 146 5 146 11 0 5 7 4 15 -3 13 -10 15 -9 15 11 0
51 -48 212 -100 334 -11 25 -23 82 -17 75 12 -12 107 -290 118 -345 14 -67 38
-108 40 -65 l0 25 11 -22 c14 -29 25 -29 31 0 l4 22 2 -22 c1 -23 3 -23 145
-23 144 0 144 0 140 22 l-5 23 10 -22 c6 -13 17 -23 26 -23 20 0 19 17 -2 29
-12 7 -13 10 -4 11 8 0 11 6 6 18 -4 9 -9 28 -11 41 -3 12 -23 84 -45 160 -22
75 -42 145 -45 156 -13 63 -223 713 -247 763 -11 23 -17 45 -15 48 7 7 51
-105 104 -263 25 -79 49 -141 53 -139 3 2 6 -10 7 -27 0 -18 23 -104 51 -192
49 -151 130 -429 153 -522 6 -24 15 -43 19 -43 5 0 7 -9 4 -20 -4 -14 0 -20
11 -20 12 0 14 7 9 33 -3 17 -3 29 1 25 6 -5 12 -25 15 -49 1 -4 194 -7 431
-8 l430 -1 0 338 c-1 345 -5 392 -40 392 -13 0 -13 1 0 11 11 8 12 12 2 16 -6
2 -10 9 -6 14 3 5 2 15 -3 21 -4 7 -8 19 -10 27 -1 8 -8 18 -15 22 -10 7 -10
9 2 9 12 1 12 3 -2 14 -20 15 -24 31 -5 20 6 -4 4 2 -6 13 -9 11 -15 22 -11
25 5 5 -24 118 -30 118 -2 0 -22 -7 -45 -15 -23 -8 -39 -10 -36 -5 3 5 21 14
40 20 39 13 43 25 19 58 -22 31 -64 51 -97 45 -16 -3 -37 1 -53 12 -14 9 -37
15 -50 12 -14 -2 -22 -2 -19 1 2 3 -4 12 -16 20 -11 8 -23 12 -26 8 -3 -3 -12
2 -21 10 -10 11 -17 12 -22 4 -5 -7 -11 -6 -20 5 -7 9 -19 14 -26 11 -7 -3
-15 0 -18 7 -5 9 -7 9 -12 0 -4 -9 -14 -7 -36 7 -18 10 -35 17 -40 14 -4 -3
-8 0 -8 7 0 7 -3 9 -7 6 -3 -4 -15 1 -25 10 -17 15 -20 15 -28 3 -8 -12 -10
-11 -11 5 l0 20 -9 -20 c-8 -19 -9 -18 -9 4 -1 21 -3 22 -18 10 -9 -8 -14 -9
-10 -3 4 7 0 14 -8 18 -8 3 -17 1 -20 -4 -4 -6 -12 -10 -18 -9 -9 0 -9 2 1 6
19 7 14 19 -13 31 -20 9 -26 8 -35 -6 -10 -15 -11 -15 -5 2 9 30 -17 39 -38
13 l-18 -22 10 22 c14 28 -6 44 -24 20 -17 -23 -24 -21 -17 5 4 18 2 20 -16
16 -12 -3 -22 -2 -24 2 -6 16 -137 58 -142 46 -2 -6 -5 -3 -5 7 -1 9 -6 17
-12 17 -6 0 -26 7 -45 16 -33 16 -36 15 -55 -2 -21 -19 -21 -19 -18 3 2 12 1
22 -3 23 -22 1 -27 -1 -31 -12 -2 -7 -3 -4 -1 7 2 15 -3 21 -16 22 -11 1 -20
-4 -20 -13 0 -8 -4 -14 -9 -14 -4 0 -6 12 -3 27 4 24 3 25 -19 19 -28 -8 -61
-15 -41 -9 27 9 -36 43 -85 47 -11 0 -19 5 -16 9 2 4 -7 6 -21 3 -14 -3 -26 0
-26 6 0 5 -6 8 -14 5 -7 -3 -17 -2 -22 2 -17 16 -64 22 -64 9 0 -6 -7 -3 -15
8 -12 15 -16 16 -23 6 -8 -11 -10 -11 -15 2 -9 23 -26 20 -37 -6 -10 -23 -10
-23 -7 2 2 22 -2 25 -30 27 -60 3 -117 37 -184 113 -35 40 -81 91 -101 114
l-37 41 31 -120z m58 -155 c0 -5 -5 -10 -11 -10 -5 0 -7 5 -4 10 3 6 8 10 11
10 2 0 4 -4 4 -10z m173 -27 c-7 -2 -19 -2 -25 0 -7 3 -2 5 12 5 14 0 19 -2
13 -5z m174 -65 c-3 -8 -6 -5 -6 6 -1 11 2 17 5 13 3 -3 4 -12 1 -19z m130 16
c-3 -3 -12 -4 -19 -1 -8 3 -5 6 6 6 11 1 17 -2 13 -5z m-440 -56 c-3 -8 -6 -5
-6 6 -1 11 2 17 5 13 3 -3 4 -12 1 -19z m416 -5 c-7 -2 -19 -2 -25 0 -7 3 -2
5 12 5 14 0 19 -2 13 -5z m91 -29 c3 -8 2 -12 -4 -9 -6 3 -10 10 -10 16 0 14
7 11 14 -7z m126 -86 c27 -56 47 -104 45 -107 -3 -2 -16 22 -30 53 -14 32 -37
80 -50 107 -14 27 -23 49 -20 49 3 0 28 -46 55 -102z m-38 -3 c22 -47 39 -87
37 -90 -3 -2 -23 36 -46 86 -23 49 -39 89 -37 89 3 0 23 -38 46 -85z m168 69
c0 -8 -19 -13 -24 -6 -3 5 1 9 9 9 8 0 15 -2 15 -3z m-191 -119 c0 -5 -13 15
-29 45 -16 30 -29 60 -29 65 0 6 13 -15 29 -45 16 -30 29 -59 29 -65z m-552
73 c-3 -8 -6 -5 -6 6 -1 11 2 17 5 13 3 -3 4 -12 1 -19z m690 -54 c-3 -3 -12
-4 -19 -1 -8 3 -5 6 6 6 11 1 17 -2 13 -5z m-420 -10 c-3 -3 -12 -4 -19 -1 -8
3 -5 6 6 6 11 1 17 -2 13 -5z m768 -24 c10 -11 14 -20 9 -20 -5 0 -15 9 -22
20 -7 11 -11 20 -9 20 2 0 12 -9 22 -20z m-855 6 c0 -2 -13 -6 -30 -8 -16 -3
-30 -1 -30 4 0 4 14 8 30 8 17 0 30 -2 30 -4z m390 -41 c0 -5 -5 -3 -10 5 -5
8 -10 20 -10 25 0 6 5 3 10 -5 5 -8 10 -19 10 -25z m391 18 c13 -16 12 -17 -3
-4 -17 13 -22 21 -14 21 2 0 10 -8 17 -17z m-981 -2 c0 -5 -10 -11 -22 -14
-13 -2 -32 -8 -43 -12 -12 -5 -17 -4 -12 1 7 7 46 24 75 33 1 1 2 -3 2 -8z
m43 2 c-7 -2 -19 -2 -25 0 -7 3 -2 5 12 5 14 0 19 -2 13 -5z m224 1 c-3 -3
-12 -4 -19 -1 -8 3 -5 6 6 6 11 1 17 -2 13 -5z m876 -1 c-7 -2 -21 -2 -30 0
-10 3 -4 5 12 5 17 0 24 -2 18 -5z m-966 -19 c-3 -3 -12 -4 -19 -1 -8 3 -5 6
6 6 11 1 17 -2 13 -5z m853 -59 c0 -5 -9 1 -20 15 -11 14 -20 30 -20 35 0 6 9
-1 20 -15 11 -14 20 -29 20 -35z m20 45 c0 -5 -2 -10 -4 -10 -3 0 -8 5 -11 10
-3 6 -1 10 4 10 6 0 11 -4 11 -10z m40 0 c0 -5 -2 -10 -4 -10 -3 0 -8 5 -11
10 -3 6 -1 10 4 10 6 0 11 -4 11 -10z m98 3 c-16 -2 -40 -2 -55 0 -16 2 -3 4
27 4 30 0 43 -2 28 -4z m-1131 -9 c-3 -3 -12 -4 -19 -1 -8 3 -5 6 6 6 11 1 17
-2 13 -5z m553 -24 c0 -8 -49 -5 -57 3 -3 4 3 7 15 7 12 0 22 6 22 13 0 8 4 7
10 -3 5 -8 10 -17 10 -20z m310 18 c0 -4 -7 -8 -15 -8 -8 0 -15 4 -15 8 0 5 7
9 15 9 8 0 15 -4 15 -9z m57 6 c-3 -3 -12 -4 -19 -1 -8 3 -5 6 6 6 11 1 17 -2
13 -5z m-754 -11 c-7 -2 -19 -2 -25 0 -7 3 -2 5 12 5 14 0 19 -2 13 -5z m427
-3 c0 -5 -2 -10 -4 -10 -3 0 -8 5 -11 10 -3 6 -1 10 4 10 6 0 11 -4 11 -10z
m48 -15 c-3 -3 -9 2 -12 12 -6 14 -5 15 5 6 7 -7 10 -15 7 -18z m110 18 c-15
-2 -42 -2 -60 0 -18 2 -6 4 27 4 33 0 48 -2 33 -4z m-274 -15 c-3 -4 -9 -8
-15 -8 -5 0 -9 4 -9 8 0 5 7 9 15 9 8 0 12 -4 9 -9z m600 -50 c19 -35 49 -105
66 -155 23 -66 37 -93 49 -93 12 0 13 -2 3 -8 -7 -5 -10 -16 -6 -25 5 -14 15
-16 53 -12 70 9 161 12 161 4 0 -3 -43 -9 -96 -12 -54 -4 -99 -8 -101 -11 -2
-2 8 -44 22 -92 14 -49 28 -96 30 -104 31 -130 41 -160 55 -160 12 0 12 -2 1
-9 -8 -5 -11 -16 -6 -30 6 -19 12 -22 50 -18 24 3 48 8 54 11 5 4 12 2 15 -3
6 -9 -39 -21 -80 -21 -15 0 -24 -6 -24 -16 0 -17 28 -152 37 -174 10 -25 10
-50 1 -50 -4 0 -8 6 -9 13 -3 58 -42 212 -56 223 -8 7 -10 14 -4 15 14 6 -91
403 -109 414 -5 3 -7 12 -4 19 3 7 -2 20 -10 29 -8 8 -13 17 -11 19 7 6 -51
164 -82 226 -15 30 -33 57 -40 59 -11 4 -9 23 2 23 2 0 20 -28 39 -62z m-67
46 c-3 -3 -12 -4 -19 -1 -8 3 -5 6 6 6 11 1 17 -2 13 -5z m161 -1 c-10 -2 -28
-2 -40 0 -13 2 -5 4 17 4 22 1 32 -1 23 -4z m139 1 c-3 -3 -12 -4 -19 -1 -8 3
-5 6 6 6 11 1 17 -2 13 -5z m-387 -14 c-6 -4 -39 -8 -73 -8 -34 -1 -87 -5
-117 -8 -30 -4 -52 -3 -49 0 4 4 44 10 90 14 116 10 162 10 149 2z m-985 -16
c-27 -8 -57 -12 -65 -11 -8 2 5 8 30 14 66 16 93 14 35 -3z m659 -88 c20 -54
36 -101 36 -105 -1 -17 -22 32 -46 102 -24 71 -46 97 -56 65 -3 -7 -7 -6 -11
5 -5 12 -1 17 13 17 11 0 20 5 20 12 0 21 9 3 44 -96z m66 76 c0 -15 -2 -15
-10 -2 -13 20 -13 33 0 25 6 -3 10 -14 10 -23z m396 -175 c22 -64 33 -87 47
-87 20 0 20 1 8 32 -9 23 -17 46 -20 60 -1 4 -17 45 -36 90 -19 45 -33 83 -31
85 2 2 18 -31 36 -74 18 -43 37 -84 42 -90 6 -7 8 -13 4 -13 -3 0 6 -30 20
-67 14 -38 27 -75 29 -83 2 -8 14 -49 28 -90 25 -79 43 -162 27 -125 -5 11
-21 61 -36 110 -15 50 -34 96 -42 103 -9 6 -11 12 -5 12 6 0 9 9 6 20 -6 22
-33 28 -33 6 0 -7 7 -33 16 -57 19 -56 80 -264 89 -307 4 -17 10 -32 13 -32 4
0 8 -20 9 -45 2 -37 0 -43 -11 -32 -8 6 -10 14 -5 17 4 3 2 18 -5 32 -8 15
-12 29 -9 32 3 3 -5 38 -17 78 -12 40 -23 80 -25 88 -10 54 -59 189 -66 184
-5 -3 -6 2 -3 10 3 8 -18 76 -46 153 -28 76 -54 147 -56 158 -9 41 44 -84 72
-168z m404 158 c14 -19 14 -19 -2 -6 -10 7 -18 18 -18 24 0 6 1 8 3 6 1 -2 9
-13 17 -24z m-1411 -75 c0 -17 -23 34 -33 71 -3 13 3 6 13 -16 11 -22 20 -47
20 -55z m1362 38 c30 -58 19 -56 -12 3 -15 27 -23 46 -18 43 5 -3 19 -23 30
-46z m29 21 c0 -6 -4 -7 -10 -4 -5 3 -10 11 -10 16 0 6 5 7 10 4 6 -3 10 -11
10 -16z m-1551 2 c10 -7 7 -9 -12 -8 -15 1 -27 5 -27 10 0 10 22 9 39 -2z
m830 -127 c23 -61 41 -116 41 -122 0 -6 8 -16 18 -21 9 -6 12 -11 6 -11 -11 0
23 -145 46 -195 10 -24 53 -154 57 -175 1 -8 16 -61 32 -117 15 -57 25 -103
20 -103 -4 0 -11 17 -15 38 -4 20 -11 48 -17 62 -6 14 -11 30 -12 35 -3 21
-18 74 -50 175 -49 152 -85 274 -84 280 0 3 -5 19 -11 35 -24 61 -90 248 -90
254 1 14 21 -31 59 -135z m769 91 c-3 -3 -9 2 -12 12 -6 14 -5 15 5 6 7 -7 10
-15 7 -18z m-1388 -20 c0 -5 -5 -3 -10 5 -5 8 -10 20 -10 25 0 6 5 3 10 -5 5
-8 10 -19 10 -25z m377 -2 c-3 -10 -5 -4 -5 12 0 17 2 24 5 18 2 -7 2 -21 0
-30z m981 12 c-3 -3 -9 2 -12 12 -6 14 -5 15 5 6 7 -7 10 -15 7 -18z m208 13
c4 -7 3 -8 -4 -4 -7 4 -12 1 -12 -8 0 -9 -5 -16 -10 -16 -7 0 -7 6 0 20 12 23
16 24 26 8z m-1409 -23 c0 -8 -4 -12 -9 -9 -5 3 -6 10 -3 15 9 13 12 11 12 -6z
m707 -11 c3 -8 2 -12 -4 -9 -6 3 -10 10 -10 16 0 14 7 11 14 -7z m249 -11 c-7
-2 -21 -2 -30 0 -10 3 -4 5 12 5 17 0 24 -2 18 -5z m507 -3 c-8 -5 -19 -10
-25 -10 -5 0 -3 5 5 10 8 5 20 10 25 10 6 0 3 -5 -5 -10z m-912 -17 c-10 -2
-26 -2 -35 0 -10 3 -2 5 17 5 19 0 27 -2 18 -5z m460 0 c-10 -2 -28 -2 -40 0
-13 2 -5 4 17 4 22 1 32 -1 23 -4z m-308 -18 c7 -9 8 -15 2 -15 -5 0 -12 7
-16 15 -3 8 -4 15 -2 15 2 0 9 -7 16 -15z m509 -55 c0 -23 -15 7 -22 45 l-6
30 14 -30 c8 -16 14 -37 14 -45z m35 20 l7 -25 -15 25 c-9 14 -15 32 -15 40 0
13 1 13 8 0 5 -8 12 -26 15 -40z m34 10 c-2 -7 -10 1 -17 16 -12 27 -11 28 4
12 10 -9 16 -21 13 -28z m-1390 5 c6 -14 8 -25 3 -25 -4 0 -13 11 -19 25 -6
14 -8 25 -3 25 4 0 13 -11 19 -25z m249 19 c-3 -3 -12 -4 -19 -1 -8 3 -5 6 6
6 11 1 17 -2 13 -5z m456 -1 c-13 -2 -33 -2 -45 0 -13 2 -3 4 22 4 25 0 35 -2
23 -4z m134 -28 c-7 -17 -27 -21 -27 -4 0 5 5 7 10 4 6 -3 10 2 10 11 0 10 3
15 6 11 4 -3 4 -13 1 -22z m-889 -10 c-3 -3 -9 2 -12 12 -6 14 -5 15 5 6 7 -7
10 -15 7 -18z m815 18 c-7 -2 -19 -2 -25 0 -7 3 -2 5 12 5 14 0 19 -2 13 -5z
m-892 -47 c-14 -36 -22 -33 -9 5 6 16 12 28 14 26 3 -2 0 -16 -5 -31z m334 25
c3 -6 -10 -7 -32 -4 -50 8 -55 13 -10 13 20 0 38 -4 42 -9z m1300 -1 c3 -6 -1
-7 -9 -4 -18 7 -21 14 -7 14 6 0 13 -4 16 -10z m-1284 -23 c-10 -9 -11 -8 -5
6 3 10 9 15 12 12 3 -3 0 -11 -7 -18z m86 1 c-3 -8 -6 -5 -6 6 -1 11 2 17 5
13 3 -3 4 -12 1 -19z m208 -64 l5 -29 -14 31 c-8 17 -17 44 -21 60 l-5 29 14
-31 c8 -17 17 -44 21 -60z m188 79 c-7 -2 -21 -2 -30 0 -10 3 -4 5 12 5 17 0
24 -2 18 -5z m176 -21 c0 -11 -3 -12 -6 -4 -2 6 -12 12 -21 12 -14 0 -15 2 -2
9 18 12 30 5 29 -17z m259 21 c-10 -2 -26 -2 -35 0 -10 3 -2 5 17 5 19 0 27
-2 18 -5z m342 -19 c0 -2 -9 0 -20 6 -11 6 -20 13 -20 16 0 2 9 0 20 -6 11 -6
20 -13 20 -16z m130 11 c0 -9 -6 -12 -16 -8 -13 5 -13 7 -2 14 17 11 18 11 18
-6z m-543 -1 c-3 -3 -12 -4 -19 -1 -8 3 -5 6 6 6 11 1 17 -2 13 -5z m-1156
-31 c-12 -20 -14 -14 -5 12 4 9 9 14 11 11 3 -2 0 -13 -6 -23z m739 7 c-8 -5
-17 -7 -19 -4 -3 3 1 9 9 14 8 5 17 7 19 4 3 -3 -1 -9 -9 -14z m725 10 c3 -5
1 -10 -4 -10 -6 0 -11 5 -11 10 0 6 2 10 4 10 3 0 8 -4 11 -10z m149 -6 c3 -8
2 -12 -4 -9 -6 3 -10 10 -10 16 0 14 7 11 14 -7z m-1379 -6 c25 -7 45 -16 45
-21 0 -4 -8 -6 -17 -3 -10 3 -37 10 -60 16 -43 11 -56 20 -28 20 8 0 35 -5 60
-12z m562 6 c-3 -3 -12 -4 -19 -1 -8 3 -5 6 6 6 11 1 17 -2 13 -5z m133 -4 c0
-5 -8 -10 -17 -10 -15 0 -16 2 -3 10 19 12 20 12 20 0z m460 1 c3 -1 -2 -5
-10 -10 -15 -10 -30 -6 -30 9 0 4 8 7 18 5 9 -2 19 -4 22 -4z m43 -12 c-4 -16
-8 -17 -14 -7 -13 19 -11 28 5 28 9 0 12 -7 9 -21z m-1322 -83 c-7 -39 -16
-84 -21 -101 -25 -89 -25 -88 15 -81 41 8 135 -18 148 -40 4 -8 15 -14 23 -14
8 0 13 -3 10 -8 -6 -11 29 -113 37 -105 4 3 7 1 7 -5 0 -7 -6 -12 -13 -12 -13
0 -41 -55 -40 -78 1 -7 -1 -11 -4 -8 -3 3 -24 -5 -47 -18 -22 -13 -54 -27 -69
-30 -37 -9 -100 9 -134 38 l-26 23 -29 -84 c-16 -47 -27 -91 -24 -98 2 -7 -2
-16 -10 -19 -21 -8 -18 8 20 117 32 92 33 99 19 128 -17 34 -13 79 11 131 12
28 38 117 51 179 2 9 8 34 14 55 6 22 11 53 11 71 0 17 5 35 11 38 7 5 8 -5 4
-32 -10 -56 -36 -173 -46 -207 -14 -47 -12 -58 10 -47 12 7 23 30 30 68 6 32
18 87 26 123 8 36 15 76 16 90 0 14 3 19 6 11 3 -8 0 -46 -6 -85z m1189 82 c0
-5 -24 -8 -52 -8 -29 0 -63 -3 -75 -6 -13 -4 -23 -2 -23 4 0 11 42 17 112 17
21 0 38 -3 38 -7z m44 -4 c3 -8 2 -12 -4 -9 -6 3 -10 10 -10 16 0 14 7 11 14
-7z m214 -29 c-3 -3 -13 7 -23 22 l-17 28 23 -22 c12 -12 20 -25 17 -28z m51
-15 c0 -9 -4 -6 -9 6 -5 12 -13 25 -19 29 -6 3 -11 12 -11 18 0 7 9 1 20 -13
11 -14 19 -32 19 -40z m-1079 40 c0 -5 -10 -10 -22 -9 -22 0 -22 1 -3 9 11 5
21 9 23 9 1 1 2 -3 2 -9z m954 -31 c-2 -4 -13 -5 -24 -2 -19 5 -19 4 -4 -41 9
-26 14 -49 12 -52 -3 -2 -11 16 -18 41 -7 25 -20 50 -29 55 -12 7 -9 9 16 10
26 0 31 3 26 18 -5 14 -3 13 10 -3 8 -11 13 -23 11 -26z m-1455 -16 c-5 -27
-18 -85 -30 -131 -12 -46 -19 -86 -16 -89 3 -3 -1 -12 -9 -20 -8 -9 -13 -22
-10 -29 3 -8 2 -14 -3 -14 -4 0 -19 -39 -31 -87 -28 -101 -72 -222 -66 -178 3
17 16 64 31 105 14 41 32 100 40 130 8 30 23 87 35 125 11 39 22 79 24 90 5
26 27 116 32 133 9 30 11 8 3 -35z m294 40 c-7 -2 -19 -2 -25 0 -7 3 -2 5 12
5 14 0 19 -2 13 -5z m67 -3 c0 -5 -7 -7 -15 -4 -8 4 -15 8 -15 10 0 2 7 4 15
4 8 0 15 -4 15 -10z m619 -15 c-4 -3 -28 -7 -55 -9 -48 -3 -147 -14 -191 -21
-13 -2 -23 1 -23 6 0 5 15 9 33 10 31 1 90 8 94 12 1 1 35 4 75 5 40 2 70 1
67 -3z m395 -10 c3 -8 -4 -10 -21 -7 -20 4 -24 2 -18 -9 7 -12 5 -12 -6 -1
-11 10 -11 14 -1 21 19 11 40 9 46 -4z m233 -7 c-3 -8 -6 -5 -6 6 -1 11 2 17
5 13 3 -3 4 -12 1 -19z m-1674 -3 c-3 -9 -8 -14 -10 -11 -3 3 -2 9 2 15 9 16
15 13 8 -4z m-190 -2 c-7 -2 -19 -2 -25 0 -7 3 -2 5 12 5 14 0 19 -2 13 -5z
m208 -16 c-10 -9 -11 -8 -5 6 3 10 9 15 12 12 3 -3 0 -11 -7 -18z m1614 -27
c9 -32 2 -25 -20 20 -13 27 -14 32 -2 20 8 -8 18 -26 22 -40z m-1640 2 c-6 -7
-34 11 -29 19 3 5 11 3 19 -4 7 -6 12 -13 10 -15z m780 -352 c2 -14 12 -31 22
-37 11 -9 12 -13 4 -13 -9 0 -11 -6 -6 -17 4 -10 11 -31 15 -48 5 -16 22 -77
39 -135 17 -58 30 -109 28 -115 -2 -5 -13 24 -24 65 -12 41 -33 113 -48 160
-14 47 -37 123 -51 170 -14 47 -41 131 -60 187 -19 56 -34 109 -34 118 0 9 -7
18 -16 22 -12 5 -13 7 -2 14 10 6 26 -34 70 -169 32 -97 60 -188 63 -202z
m912 348 c-3 -7 -5 -2 -5 12 0 14 2 19 5 13 2 -7 2 -19 0 -25z m-1757 7 c14
-8 21 -14 15 -14 -5 0 -21 6 -35 14 -14 8 -20 14 -15 14 6 0 21 -6 35 -14z
m670 4 c0 -5 -12 -9 -26 -9 -14 0 -23 4 -20 8 7 11 46 12 46 1z m449 -6 c0
-12 -2 -14 -6 -4 -5 11 -7 11 -14 0 -5 -8 -9 -9 -9 -4 0 7 -16 9 -37 7 -24 -2
-33 0 -26 5 7 5 31 10 53 11 33 2 40 0 39 -15z m-119 -3 c-18 -10 -148 -26
-139 -17 8 10 80 25 119 26 25 0 31 -2 20 -9z m350 -10 c-8 -5 -19 -10 -25
-10 -5 0 -3 5 5 10 8 5 20 10 25 10 6 0 3 -5 -5 -10z m97 -12 c-3 -8 -6 -5 -6
6 -1 11 2 17 5 13 3 -3 4 -12 1 -19z m-44 -5 c-7 -2 -19 -2 -25 0 -7 3 -2 5
12 5 14 0 19 -2 13 -5z m-1516 -9 c-3 -3 -12 -4 -19 -1 -8 3 -5 6 6 6 11 1 17
-2 13 -5z m716 -11 c-7 -2 -19 -2 -25 0 -7 3 -2 5 12 5 14 0 19 -2 13 -5z
m754 1 c-3 -3 -12 -4 -19 -1 -8 3 -5 6 6 6 11 1 17 -2 13 -5z m66 -21 c-7 -2
-19 -2 -25 0 -7 3 -2 5 12 5 14 0 19 -2 13 -5z m-1158 -21 c-3 -3 -11 0 -18 7
-9 10 -8 11 6 5 10 -3 15 -9 12 -12z m140 8 c-3 -5 -14 -10 -23 -9 -14 0 -13
2 3 9 27 11 27 11 20 0z m-390 -10 c3 -6 -1 -7 -9 -4 -18 7 -21 14 -7 14 6 0
13 -4 16 -10z m992 4 c-3 -3 -12 -4 -19 -1 -8 3 -5 6 6 6 11 1 17 -2 13 -5z
m-700 -10 c-3 -3 -12 -4 -19 -1 -8 3 -5 6 6 6 11 1 17 -2 13 -5z m1313 -29 c0
-5 -5 -3 -10 5 -5 8 -10 20 -10 25 0 6 5 3 10 -5 5 -8 10 -19 10 -25z m-1365
7 c-3 -3 -11 0 -18 7 -9 10 -8 11 6 5 10 -3 15 -9 12 -12z m98 11 c-7 -2 -19
-2 -25 0 -7 3 -2 5 12 5 14 0 19 -2 13 -5z m47 -9 c0 -2 -7 -4 -15 -4 -8 0
-15 4 -15 10 0 5 7 7 15 4 8 -4 15 -8 15 -10z m567 10 c-3 -3 -12 -4 -19 -1
-8 3 -5 6 6 6 11 1 17 -2 13 -5z m380 0 c-3 -3 -12 -4 -19 -1 -8 3 -5 6 6 6
11 1 17 -2 13 -5z m-1346 -13 c7 11 9 11 9 -2 0 -9 10 -21 23 -27 17 -8 18
-11 5 -11 -9 -1 -19 3 -22 8 -3 4 -19 11 -36 14 -16 4 -30 11 -30 17 0 7 7 7
21 -1 17 -9 23 -8 30 2z m306 -7 c-3 -3 -12 -4 -19 -1 -8 3 -5 6 6 6 11 1 17
-2 13 -5z m660 -10 c-3 -3 -12 -4 -19 -1 -8 3 -5 6 6 6 11 1 17 -2 13 -5z
m390 0 c-3 -3 -12 -4 -19 -1 -8 3 -5 6 6 6 11 1 17 -2 13 -5z m-1077 -14 c8
-5 11 -10 5 -10 -5 0 -17 5 -25 10 -8 5 -10 10 -5 10 6 0 17 -5 25 -10z m1507
-12 c-3 -8 -6 -5 -6 6 -1 11 2 17 5 13 3 -3 4 -12 1 -19z m-808 -14 c14 -12
-19 -1 -35 12 -18 14 -18 14 6 3 14 -6 27 -13 29 -15z m48 20 c-3 -3 -12 -4
-19 -1 -8 3 -5 6 6 6 11 1 17 -2 13 -5z m386 -1 c-7 -2 -21 -2 -30 0 -10 3 -4
5 12 5 17 0 24 -2 18 -5z m-56 -9 c-3 -3 -12 -4 -19 -1 -8 3 -5 6 6 6 11 1 17
-2 13 -5z m168 -4 c4 -6 -7 -10 -27 -9 -31 1 -32 1 -8 9 14 4 26 8 27 9 1 1 5
-3 8 -9z m-1488 -46 c-7 -7 -77 28 -77 38 0 5 18 -1 41 -12 23 -12 39 -24 36
-26z m390 24 c-3 -8 -6 -5 -6 6 -1 11 2 17 5 13 3 -3 4 -12 1 -19z m53 12 c0
-5 -6 -7 -14 -4 -8 3 -16 -2 -19 -13 -4 -14 -5 -14 -6 5 -1 16 5 22 19 22 11
0 20 -4 20 -10z m631 -8 c-7 -2 -18 1 -23 6 -8 8 -4 9 13 5 13 -4 18 -8 10
-11z m296 2 c-3 -3 -12 -4 -19 -1 -8 3 -5 6 6 6 11 1 17 -2 13 -5z m330 -26
c-3 -7 -5 -2 -5 12 0 14 2 19 5 13 2 -7 2 -19 0 -25z m-1340 16 c-3 -3 -12 -4
-19 -1 -8 3 -5 6 6 6 11 1 17 -2 13 -5z m250 0 c-3 -3 -12 -4 -19 -1 -8 3 -5
6 6 6 11 1 17 -2 13 -5z m396 -1 c-7 -2 -21 -2 -30 0 -10 3 -4 5 12 5 17 0 24
-2 18 -5z m87 -19 c0 -2 -13 -4 -30 -4 -16 0 -30 4 -30 8 0 5 14 7 30 4 17 -2
30 -6 30 -8z m283 -1 c-7 -2 -21 -2 -30 0 -10 3 -4 5 12 5 17 0 24 -2 18 -5z
m-943 -13 c0 -5 -5 -10 -11 -10 -5 0 -7 5 -4 10 3 6 8 10 11 10 2 0 4 -4 4
-10z m563 3 c-7 -2 -21 -2 -30 0 -10 3 -4 5 12 5 17 0 24 -2 18 -5z m172 -11
c-3 -3 -11 0 -18 7 -9 10 -8 11 6 5 10 -3 15 -9 12 -12z m76 3 c2 -17 5 -34 9
-37 3 -5 9 -33 15 -73 7 -53 -1 -36 -24 53 -10 39 -15 72 -10 72 5 0 10 -7 10
-15z m-1310 -18 c-10 -9 -11 -8 -5 6 3 10 9 15 12 12 3 -3 0 -11 -7 -18z m669
13 c-34 -11 -60 -11 -35 0 11 5 29 8 40 8 16 0 15 -2 -5 -8z m327 4 c-3 -3
-12 -4 -19 -1 -8 3 -5 6 6 6 11 1 17 -2 13 -5z m198 -4 c-3 -5 -16 -10 -28 -9
-20 1 -20 2 3 9 14 4 26 8 28 9 2 1 0 -3 -3 -9z m354 6 c-2 -2 -33 -6 -69 -9
-39 -3 -55 -2 -40 3 25 8 117 13 109 6z m-1649 -10 c0 -2 -8 -10 -17 -17 -16
-13 -17 -12 -4 4 13 16 21 21 21 13z m33 -11 c-3 -9 -8 -14 -10 -11 -3 3 -2 9
2 15 9 16 15 13 8 -4z m855 8 c-10 -2 -28 -2 -40 0 -13 2 -5 4 17 4 22 1 32
-1 23 -4z m-228 -48 c0 -5 -5 -3 -10 5 -5 8 -10 20 -10 25 0 6 5 3 10 -5 5 -8
10 -19 10 -25z m138 28 c-10 -2 -26 -2 -35 0 -10 3 -2 5 17 5 19 0 27 -2 18
-5z m309 1 c-3 -3 -12 -4 -19 -1 -8 3 -5 6 6 6 11 1 17 -2 13 -5z m500 0 c-3
-3 -12 -4 -19 -1 -8 3 -5 6 6 6 11 1 17 -2 13 -5z m40 0 c-3 -3 -12 -4 -19 -1
-8 3 -5 6 6 6 11 1 17 -2 13 -5z m263 -9 c0 -8 -2 -15 -4 -15 -2 0 -6 7 -10
15 -3 8 -1 15 4 15 6 0 10 -7 10 -15z m-1327 -21 c-4 -11 -7 -11 -19 1 -19 19
-18 24 5 18 12 -3 17 -11 14 -19z m324 4 c-3 -8 -6 -5 -6 6 -1 11 2 17 5 13 3
-3 4 -12 1 -19z m620 16 c-3 -3 -12 -4 -19 -1 -8 3 -5 6 6 6 11 1 17 -2 13 -5z
m-364 -11 c-7 -2 -21 -2 -30 0 -10 3 -4 5 12 5 17 0 24 -2 18 -5z m577 -13 c0
-5 -4 -10 -9 -10 -5 0 -18 -3 -28 -6 -16 -6 -16 -5 2 9 23 19 35 21 35 7z
m-935 -10 c4 -6 -6 -10 -22 -9 -25 0 -26 1 -8 9 11 5 21 9 22 9 1 1 5 -3 8 -9z
m428 3 c-7 -2 -19 -2 -25 0 -7 3 -2 5 12 5 14 0 19 -2 13 -5z m-80 -10 c-7 -2
-19 -2 -25 0 -7 3 -2 5 12 5 14 0 19 -2 13 -5z m467 -3 c0 -5 -15 -10 -32 -10
-18 0 -43 -3 -55 -6 -13 -4 -23 -2 -23 4 0 6 21 13 48 15 26 2 50 4 55 5 4 1
7 -2 7 -8z m-1653 -6 c-3 -3 -12 -4 -19 -1 -8 3 -5 6 6 6 11 1 17 -2 13 -5z
m104 -17 c-10 -9 -11 -8 -5 6 3 10 9 15 12 12 3 -3 0 -11 -7 -18z m826 17 c-3
-3 -12 -4 -19 -1 -8 3 -5 6 6 6 11 1 17 -2 13 -5z m-193 -73 c14 -36 25 -74
25 -85 -1 -17 -2 -18 -6 -3 -2 9 -8 17 -13 17 -5 0 -7 6 -4 14 3 7 -1 20 -8
27 -7 8 -14 23 -15 34 -1 11 -5 31 -9 45 -12 43 3 18 30 -49z m-36 -40 c-2 -9
-11 7 -21 36 -22 68 -21 79 4 24 11 -25 18 -52 17 -60z m119 93 c-3 -3 -12 -4
-19 -1 -8 3 -5 6 6 6 11 1 17 -2 13 -5z m573 -3 c0 -5 -27 -11 -60 -13 -57 -3
-85 7 -37 14 53 7 97 7 97 -1z m-1306 -17 c3 -8 2 -12 -4 -9 -6 3 -10 10 -10
16 0 14 7 11 14 -7z m693 10 c-3 -3 -12 -4 -19 -1 -8 3 -5 6 6 6 11 1 17 -2
13 -5z m483 -3 c0 -5 -26 -12 -57 -16 -64 -8 -63 -8 -63 1 0 4 19 8 42 11 23
2 44 5 46 8 9 8 32 5 32 -4z m505 0 c-6 -5 -21 -12 -35 -15 -24 -7 -24 -6 -6
8 21 17 57 23 41 7z m-1181 -35 c-3 -14 -10 -26 -15 -26 -4 0 -3 14 3 31 12
36 22 33 12 -5z m54 -11 c-3 -3 -9 2 -12 12 -6 14 -5 15 5 6 7 -7 10 -15 7
-18z m-504 0 c-7 -18 -20 -19 -30 -3 -4 6 -3 8 4 4 6 -3 13 -2 17 4 9 15 15
12 9 -5z m735 11 c-11 -9 -100 -15 -94 -6 3 6 27 10 52 10 26 0 44 -2 42 -4z
m111 -8 c0 -4 -19 -8 -42 -7 -34 1 -38 2 -18 8 32 9 60 9 60 -1z m497 -10 c-3
-8 -6 -5 -6 6 -1 11 2 17 5 13 3 -3 4 -12 1 -19z m-117 0 c0 -4 -12 -8 -27 -9
-16 0 -41 -2 -58 -4 -113 -14 -139 -15 -124 -5 10 5 55 13 100 18 109 10 109
10 109 0z m-794 -44 c-4 -9 -9 -15 -11 -12 -3 3 -3 13 1 22 4 9 9 15 11 12 3
-3 3 -13 -1 -22z m973 -214 c0 -29 -19 33 -39 128 -11 52 -20 100 -19 106 1
15 58 -215 58 -234z m-649 214 c0 -2 -26 -4 -57 -3 -34 0 -50 3 -40 7 17 7 97
4 97 -4z m102 -2 c-14 -2 -20 -8 -16 -15 4 -7 2 -7 -7 1 -12 11 -12 14 0 21 8
5 21 6 30 3 13 -5 11 -8 -7 -10z m476 -79 c11 -46 17 -83 13 -83 -7 0 -41 146
-40 170 1 22 6 5 27 -87z m489 55 c-3 -7 -5 -2 -5 12 0 14 2 19 5 13 2 -7 2
-19 0 -25z m-1237 0 c0 -19 -2 -20 -10 -8 -13 19 -13 30 0 30 6 0 10 -10 10
-22z m-400 2 c8 -5 11 -10 5 -10 -5 0 -17 5 -25 10 -8 5 -10 10 -5 10 6 0 17
-5 25 -10z m940 0 c0 -5 -5 -10 -11 -10 -5 0 -7 5 -4 10 3 6 8 10 11 10 2 0 4
-4 4 -10z m-778 -22 c-3 -14 -2 -19 6 -14 7 4 12 3 12 -3 0 -5 -9 -9 -19 -8
-11 0 -18 4 -17 7 2 3 6 13 9 23 9 24 16 21 9 -5z m71 7 c-3 -9 -8 -14 -10
-11 -3 3 -2 9 2 15 9 16 15 13 8 -4z m-503 -26 c0 -4 -7 -6 -15 -3 -8 4 -15
10 -15 15 0 4 7 6 15 3 8 -4 15 -10 15 -15z m320 -4 c19 -7 28 -13 20 -13 -8
0 -31 6 -50 13 -19 7 -28 13 -20 13 8 0 31 -6 50 -13z m390 -84 c15 -50 25
-91 21 -91 -4 0 -18 35 -30 78 -12 42 -25 86 -28 97 -3 11 -3 17 1 13 4 -3 20
-47 36 -97z m24 45 c22 -76 18 -94 -5 -21 -19 62 -22 75 -15 75 3 0 12 -24 20
-54z m-694 22 c0 -4 -4 -8 -9 -8 -6 0 -12 4 -15 8 -3 5 1 9 9 9 8 0 15 -4 15
-9z m423 -3 c-3 -9 -8 -14 -10 -11 -3 3 -2 9 2 15 9 16 15 13 8 -4z m-206 -21
c-6 -6 -47 9 -47 17 0 5 11 3 25 -3 14 -6 24 -13 22 -14z m150 20 c-3 -3 -12
-4 -19 -1 -8 3 -5 6 6 6 11 1 17 -2 13 -5z m26 -24 c-3 -11 -7 -20 -9 -20 -2
0 -4 9 -4 20 0 11 4 20 9 20 5 0 7 -9 4 -20z m-23 0 c0 -5 -5 -10 -11 -10 -5
0 -7 5 -4 10 3 6 8 10 11 10 2 0 4 -4 4 -10z m-185 -10 c3 -6 -1 -7 -9 -4 -18
7 -21 14 -7 14 6 0 13 -4 16 -10z m924 -150 c-1 -22 -48 121 -47 145 0 11 11
-14 24 -55 13 -41 24 -82 23 -90z m-769 141 c0 -5 -9 -11 -20 -14 -11 -3 -20
-1 -20 3 0 5 8 11 18 13 9 3 18 5 20 6 1 0 2 -3 2 -8z m93 -11 c-3 -11 -10
-20 -15 -20 -5 0 -6 5 -2 11 3 6 0 15 -7 20 -11 7 -9 9 8 9 16 0 20 -5 16 -20z
m354 14 c-3 -3 -12 -4 -19 -1 -8 3 -5 6 6 6 11 1 17 -2 13 -5z m850 0 c-3 -3
-12 -4 -19 -1 -8 3 -5 6 6 6 11 1 17 -2 13 -5z m-1257 -25 c0 -4 -7 -6 -15 -3
-8 4 -15 10 -15 15 0 4 7 6 15 3 8 -4 15 -10 15 -15z m-110 1 c8 -5 11 -10 5
-10 -5 0 -17 5 -25 10 -8 5 -10 10 -5 10 6 0 17 -5 25 -10z m487 4 c-3 -3 -12
-4 -19 -1 -8 3 -5 6 6 6 11 1 17 -2 13 -5z m76 -11 c-7 -2 -21 -2 -30 0 -10 3
-4 5 12 5 17 0 24 -2 18 -5z m-595 -31 c28 -9 52 -19 52 -23 0 -4 -19 -1 -42
6 -64 19 -98 34 -98 41 0 3 8 3 18 -1 9 -3 41 -14 70 -23z m949 12 c-3 -3 -12
-4 -19 -1 -8 3 -5 6 6 6 11 1 17 -2 13 -5z m210 -16 c-3 -8 -6 -5 -6 6 -1 11
2 17 5 13 3 -3 4 -12 1 -19z m-849 -13 c-3 -3 -9 2 -12 12 -6 14 -5 15 5 6 7
-7 10 -15 7 -18z m1050 -45 l0 -25 -8 25 c-4 14 -8 36 -8 50 l0 25 8 -25 c4
-14 8 -36 8 -50z m299 48 c-3 -8 -6 -5 -6 6 -1 11 2 17 5 13 3 -3 4 -12 1 -19z
m-1581 3 c-3 -5 3 -11 14 -14 11 -3 20 -1 20 5 0 5 7 3 15 -6 16 -16 21 -31 7
-22 -5 3 -21 7 -36 10 -16 3 -31 7 -33 10 -5 5 5 26 13 26 3 0 3 -4 0 -9z
m542 2 c-10 -2 -28 -2 -40 0 -13 2 -5 4 17 4 22 1 32 -1 23 -4z m99 1 c-3 -3
-12 -4 -19 -1 -8 3 -5 6 6 6 11 1 17 -2 13 -5z m341 -1 c-10 -2 -26 -2 -35 0
-10 3 -2 5 17 5 19 0 27 -2 18 -5z m-1096 -34 c34 -11 70 -21 80 -22 10 -1 18
-5 18 -10 0 -14 -65 1 -124 28 -64 29 -54 31 26 4z m204 12 c-4 -5 -1 -11 6
-13 8 -3 6 -7 -5 -11 -17 -6 -24 12 -10 26 9 10 15 8 9 -2z m1004 -10 c0 -11
3 -28 7 -38 3 -10 3 -15 -1 -12 -12 11 -25 69 -15 69 5 0 9 -9 9 -19z m-1463
-13 c-3 -8 -6 -5 -6 6 -1 11 2 17 5 13 3 -3 4 -12 1 -19z m910 16 c-3 -3 -12
-4 -19 -1 -8 3 -5 6 6 6 11 1 17 -2 13 -5z m-314 -24 c3 -11 1 -18 -4 -14 -5
3 -9 12 -9 20 0 20 7 17 13 -6z m190 0 c3 -11 1 -20 -4 -20 -5 0 -9 9 -9 20 0
11 2 20 4 20 2 0 6 -9 9 -20z m460 13 c-7 -2 -21 -2 -30 0 -10 3 -4 5 12 5 17
0 24 -2 18 -5z m-333 -13 c0 -5 -12 -10 -27 -9 l-28 1 25 8 c14 4 26 8 28 9 1
1 2 -3 2 -9z m597 -27 c-3 -10 -5 -4 -5 12 0 17 2 24 5 18 2 -7 2 -21 0 -30z
m-760 5 c-3 -8 -6 -5 -6 6 -1 11 2 17 5 13 3 -3 4 -12 1 -19z m256 15 c-7 -2
-21 -2 -30 0 -10 3 -4 5 12 5 17 0 24 -2 18 -5z m334 1 c-3 -3 -12 -4 -19 -1
-8 3 -5 6 6 6 11 1 17 -2 13 -5z m-925 -18 c-3 -5 1 -7 9 -4 8 3 19 0 26 -7 9
-10 8 -14 -8 -18 -11 -3 -16 -1 -13 5 3 5 0 8 -7 7 -18 -4 -59 10 -59 19 0 4
13 7 29 7 16 0 27 -4 23 -9z m841 7 c-7 -2 -19 -2 -25 0 -7 3 -2 5 12 5 14 0
19 -2 13 -5z m-168 -34 c10 -43 1 -46 -12 -4 -6 19 -7 35 -3 35 5 0 11 -14 15
-31z m-455 11 c0 -5 -2 -10 -4 -10 -3 0 -8 5 -11 10 -3 6 -1 10 4 10 6 0 11
-4 11 -10z m278 3 c-10 -2 -28 -2 -40 0 -13 2 -5 4 17 4 22 1 32 -1 23 -4z
m112 -1 c0 -5 -13 -7 -30 -4 -16 2 -30 6 -30 8 0 2 14 4 30 4 17 0 30 -4 30
-8z m637 -24 c-3 -7 -5 -2 -5 12 0 14 2 19 5 13 2 -7 2 -19 0 -25z m-1049 -3
c-3 -3 -9 2 -12 12 -6 14 -5 15 5 6 7 -7 10 -15 7 -18z m155 5 c3 -11 2 -20
-3 -20 -4 0 -10 9 -13 20 -3 11 -2 20 3 20 4 0 10 -9 13 -20z m404 -2 c-3 -8
-6 -5 -6 6 -1 11 2 17 5 13 3 -3 4 -12 1 -19z m76 15 c-7 -2 -21 -2 -30 0 -10
3 -4 5 12 5 17 0 24 -2 18 -5z m-580 -23 c3 -11 1 -20 -4 -20 -5 0 -9 9 -9 20
0 11 2 20 4 20 2 0 6 -9 9 -20z m-748 0 c3 -6 -1 -7 -9 -4 -18 7 -21 14 -7 14
6 0 13 -4 16 -10z m882 -12 c-3 -8 -6 -5 -6 6 -1 11 2 17 5 13 3 -3 4 -12 1
-19z m116 15 c-7 -2 -19 -2 -25 0 -7 3 -2 5 12 5 14 0 19 -2 13 -5z m707 -12
c0 -11 3 -26 6 -35 3 -9 2 -16 -4 -16 -5 0 -12 16 -14 35 -2 19 0 35 4 35 4 0
8 -9 8 -19z m-1247 -6 c-3 -9 -8 -14 -10 -11 -3 3 -2 9 2 15 9 16 15 13 8 -4z
m1027 5 c0 -5 -8 -10 -17 -10 -15 0 -16 2 -3 10 19 12 20 12 20 0z m40 -2 c0
-4 -7 -8 -15 -8 -8 0 -15 4 -15 8 0 5 7 9 15 9 8 0 15 -4 15 -9z m39 -15 c0
-25 -1 -25 -8 -8 -5 11 -7 23 -4 28 8 14 13 7 12 -20z m-1579 10 c0 -16 -15
-30 -31 -30 -11 0 -15 7 -11 19 4 17 42 27 42 11z m430 3 c0 -3 -4 -8 -10 -11
-5 -3 -10 -1 -10 4 0 6 5 11 10 11 6 0 10 -2 10 -4z m955 -17 c-55 -11 -77
-11 -70 1 3 6 30 9 58 9 l52 -1 -40 -9z m-1372 -14 c-3 -9 -8 -14 -10 -11 -3
3 -2 9 2 15 9 16 15 13 8 -4z m1152 5 c3 -5 1 -10 -4 -10 -6 0 -11 5 -11 10 0
6 2 10 4 10 3 0 8 -4 11 -10z m-140 -10 c-46 -12 -103 -12 -85 0 8 5 38 9 65
9 44 -1 46 -2 20 -9z m88 3 c-7 -2 -19 -2 -25 0 -7 3 -2 5 12 5 14 0 19 -2 13
-5z"/>
<path d="M3030 39 c0 -5 5 -7 10 -4 6 3 10 8 10 11 0 2 -4 4 -10 4 -5 0 -10
-5 -10 -11z"/>
<path d="M1725 1740 c-3 -5 -1 -10 4 -10 6 0 11 5 11 10 0 6 -2 10 -4 10 -3 0
-8 -4 -11 -10z"/>
<path d="M1704 1704 c3 -8 2 -13 -3 -9 -12 7 -37 -31 -85 -128 -22 -44 -56
-92 -77 -112 -22 -19 -39 -41 -39 -47 0 -10 -2 -10 -9 0 -7 11 -11 11 -23 -1
-8 -8 -29 -18 -46 -22 -27 -6 -32 -11 -33 -38 -2 -31 -2 -31 -6 -4 -6 38 -26
29 -34 -14 -6 -32 -6 -32 -8 -6 -1 18 -6 27 -13 24 -8 -2 -12 -19 -11 -41 2
-22 -1 -34 -7 -31 -6 3 -10 17 -10 31 0 13 -2 24 -5 24 -3 0 -59 -28 -125 -62
-74 -38 -120 -68 -120 -78 0 -12 -2 -13 -9 -1 -7 11 -11 10 -22 -7 -7 -11 -18
-18 -24 -15 -7 2 -15 -3 -18 -11 -4 -9 -13 -13 -22 -10 -8 3 -15 1 -15 -5 0
-6 -8 -11 -17 -11 -21 -1 -95 -54 -87 -63 3 -3 -1 -5 -8 -4 -37 1 -50 -4 -45
-18 4 -8 1 -17 -5 -21 -6 -4 -8 -3 -4 4 3 6 2 13 -4 17 -5 3 -10 1 -10 -5 0
-6 -4 -9 -8 -6 -9 5 -114 -45 -140 -67 -12 -10 -42 -27 -129 -73 -18 -10 -33
-22 -33 -26 0 -5 -4 -7 -9 -4 -5 3 -14 -1 -21 -9 -7 -8 -18 -15 -26 -15 -7 0
-18 -8 -23 -17 -6 -10 -11 -15 -11 -10 0 4 -19 -3 -43 -15 -23 -12 -48 -21
-54 -20 -7 2 -13 -5 -13 -14 0 -13 -3 -14 -14 -5 -10 8 -20 7 -42 -4 -45 -22
-107 -81 -100 -94 4 -6 3 -11 -2 -11 -5 0 -12 -9 -15 -20 -3 -11 -1 -20 5 -20
5 0 2 -7 -6 -16 -9 -8 -16 -20 -16 -25 0 -5 -3 -8 -8 -7 -4 2 -7 -1 -7 -7 0
-5 6 -9 13 -9 6 1 12 -2 12 -8 0 -5 6 -6 13 -2 6 4 8 3 4 -1 -4 -5 -20 -9 -34
-10 -25 0 -28 -4 -40 -70 -14 -78 -13 -206 2 -217 6 -5 5 -8 -2 -8 -10 0 -13
-30 -13 -115 l0 -115 84 0 c58 0 86 4 89 13 4 8 6 8 6 1 1 -8 42 -12 135 -13
133 -2 135 -2 139 21 l4 23 2 -22 c1 -30 28 -30 34 -1 l4 23 2 -22 c2 -36 29
-28 34 10 l4 32 1 -32 2 -31 130 -1 129 -2 7 28 c10 46 14 50 11 11 -3 -37 15
-54 26 -25 4 9 6 9 6 0 1 -7 7 -13 15 -13 8 0 17 6 19 13 4 10 6 10 6 0 1 -10
33 -13 125 -13 l124 0 12 35 c6 19 9 38 7 42 -3 5 1 14 9 21 18 16 18 5 -1
-48 -19 -53 -19 -50 4 -50 15 0 21 10 26 40 4 22 12 43 18 47 7 4 8 0 3 -13
-18 -45 -19 -74 -3 -74 8 0 18 6 20 13 4 8 6 9 6 0 1 -17 317 -18 324 -1 4 10
6 10 6 1 1 -7 8 -13 17 -13 13 0 15 8 10 43 l-5 42 11 -43 c10 -38 25 -52 41
-36 3 3 2 17 -3 30 -5 13 -6 24 -1 24 5 0 11 -13 15 -30 l6 -30 94 0 c82 0 95
2 99 18 4 16 5 16 6 0 0 -10 6 -18 11 -18 7 0 9 28 5 83 -4 45 -6 97 -5 115 0
21 -3 31 -10 27 -6 -3 -7 0 -4 10 9 24 -4 63 -24 68 -16 4 -16 5 1 6 21 1 22
39 3 127 -7 34 -11 75 -9 91 5 28 -6 113 -23 188 -4 17 -7 52 -7 79 -1 33 -3
43 -9 30 -4 -11 -5 0 -2 26 3 31 -2 67 -17 115 -12 39 -23 93 -25 120 -6 94
-25 229 -32 235 -12 9 -14 155 -3 212 5 29 13 83 17 121 6 59 4 67 -11 67 -11
0 -15 -5 -11 -16z m-57 -126 c-3 -8 -6 -5 -6 6 -1 11 2 17 5 13 3 -3 4 -12 1
-19z m16 -103 c-9 -19 -18 -33 -20 -32 -5 6 21 67 29 67 4 0 0 -16 -9 -35z
m-10 -132 c-7 -2 -19 -2 -25 0 -7 3 -2 5 12 5 14 0 19 -2 13 -5z m-23 -27 c0
-3 -4 -8 -10 -11 -5 -3 -10 -1 -10 4 0 6 5 11 10 11 6 0 10 -2 10 -4z m55 -16
c3 -6 -1 -7 -9 -4 -18 7 -21 14 -7 14 6 0 13 -4 16 -10z m-520 -70 c-3 -5 -16
-15 -28 -21 -21 -10 -21 -9 2 10 25 23 36 27 26 11z m125 -24 c0 -3 -4 -8 -10
-11 -5 -3 -10 -1 -10 4 0 6 5 11 10 11 6 0 10 -2 10 -4z m-101 -123 c-20 -51
-51 -105 -37 -63 19 52 53 128 56 125 3 -2 -6 -30 -19 -62z m52 40 c-12 -20
-14 -14 -5 12 4 9 9 14 11 11 3 -2 0 -13 -6 -23z m-80 -16 c-10 -9 -11 -8 -5
6 3 10 9 15 12 12 3 -3 0 -11 -7 -18z m60 -34 c-12 -20 -14 -14 -5 12 4 9 9
14 11 11 3 -2 0 -13 -6 -23z m522 -88 c27 -72 44 -134 34 -125 -5 5 -49 124
-67 184 -18 55 7 11 33 -59z m-620 25 c-9 -22 -18 -39 -19 -37 -7 6 17 77 26
77 4 0 1 -18 -7 -40z m78 17 c-10 -9 -11 -8 -5 6 3 10 9 15 12 12 3 -3 0 -11
-7 -18z m319 -12 c0 -8 -7 -15 -15 -15 -13 0 -14 3 -3 15 16 18 18 18 18 0z
m53 -2 c-7 -2 -19 -2 -25 0 -7 3 -2 5 12 5 14 0 19 -2 13 -5z m-616 -9 c-3 -3
-12 -4 -19 -1 -8 3 -5 6 6 6 11 1 17 -2 13 -5z m450 -20 c-3 -3 -12 -4 -19 -1
-8 3 -5 6 6 6 11 1 17 -2 13 -5z m-634 -19 c-3 -9 -8 -14 -10 -11 -3 3 -2 9 2
15 9 16 15 13 8 -4z m377 11 c0 -3 -4 -8 -10 -11 -5 -3 -10 -1 -10 4 0 6 5 11
10 11 6 0 10 -2 10 -4z m438 -3 c-10 -2 -26 -2 -35 0 -10 3 -2 5 17 5 19 0 27
-2 18 -5z m-151 -19 c-3 -3 -12 -4 -19 -1 -8 3 -5 6 6 6 11 1 17 -2 13 -5z
m133 -20 c0 -2 -12 -4 -26 -4 -14 0 -23 4 -20 9 6 8 46 4 46 -5z m-223 0 c-3
-3 -12 -4 -19 -1 -8 3 -5 6 6 6 11 1 17 -2 13 -5z m-332 -22 c42 -8 27 -13
-23 -9 -29 3 -56 8 -60 12 -4 4 5 5 21 3 16 -3 27 -1 27 6 0 7 3 7 8 1 4 -5
16 -12 27 -13z m678 -1 c-4 -3 -11 -10 -14 -14 -3 -5 -9 0 -11 11 -4 15 -1 18
14 14 10 -2 15 -7 11 -11z m-983 5 c0 -3 -4 -8 -10 -11 -5 -3 -10 -1 -10 4 0
6 5 11 10 11 6 0 10 -2 10 -4z m148 -3 c-10 -2 -26 -2 -35 0 -10 3 -2 5 17 5
19 0 27 -2 18 -5z m49 1 c-3 -3 -12 -4 -19 -1 -8 3 -5 6 6 6 11 1 17 -2 13 -5z
m326 -1 c-7 -2 -19 -2 -25 0 -7 3 -2 5 12 5 14 0 19 -2 13 -5z m427 -7 c0 -2
-13 -9 -30 -15 -16 -5 -30 -6 -30 -1 0 7 10 11 53 19 4 0 7 -1 7 -3z m-343
-12 c-3 -3 -12 -4 -19 -1 -8 3 -5 6 6 6 11 1 17 -2 13 -5z m203 -9 c0 -8 -4
-15 -10 -15 -5 0 -7 7 -4 15 4 8 8 15 10 15 2 0 4 -7 4 -15z m-590 -17 c0 -4
-4 -8 -9 -8 -6 0 -12 4 -15 8 -3 5 1 9 9 9 8 0 15 -4 15 -9z m290 2 c18 -12 2
-12 -25 0 -13 6 -15 9 -5 9 8 0 22 -4 30 -9z m370 6 c0 -2 -9 -6 -20 -9 -11
-3 -18 -1 -14 4 5 9 34 13 34 5z m-566 -18 c-3 -4 -14 -8 -25 -8 -10 0 -19 4
-19 8 0 4 11 8 24 8 14 0 22 -4 20 -8z m-360 -133 c-25 -66 -49 -124 -54 -129
-9 -9 47 148 77 217 33 75 21 28 -23 -88z m55 39 c-12 -32 -27 -63 -32 -69
-11 -11 -10 -7 25 83 12 29 23 51 25 49 2 -2 -6 -31 -18 -63z m1009 41 c-3 -3
-9 2 -12 12 -6 14 -5 15 5 6 7 -7 10 -15 7 -18z m-1104 -72 c-14 -38 -32 -87
-41 -111 -9 -23 -18 -40 -21 -38 -6 7 74 216 83 216 2 0 -7 -30 -21 -67z m447
13 c-14 -36 -22 -33 -9 5 6 16 12 28 14 26 3 -2 0 -16 -5 -31z m397 9 c-3 -3
-9 2 -12 12 -6 14 -5 15 5 6 7 -7 10 -15 7 -18z m-1098 -15 c-6 -11 -13 -20
-16 -20 -2 0 0 9 6 20 6 11 13 20 16 20 2 0 0 -9 -6 -20z m1067 -12 c-3 -8 -6
-5 -6 6 -1 11 2 17 5 13 3 -3 4 -12 1 -19z m-30 -40 c-3 -7 -5 -2 -5 12 0 14
2 19 5 13 2 -7 2 -19 0 -25z m-353 7 c-4 -8 -8 -15 -10 -15 -2 0 -4 7 -4 15 0
8 4 15 10 15 5 0 7 -7 4 -15z m393 -17 c-3 -7 -5 -2 -5 12 0 14 2 19 5 13 2
-7 2 -19 0 -25z m292 -8 c0 -10 -3 -8 -9 5 -12 27 -12 43 0 25 5 -8 9 -22 9
-30z m-1282 24 c-3 -3 -12 -4 -19 -1 -8 3 -5 6 6 6 11 1 17 -2 13 -5z m-127
-24 c-6 -11 -13 -20 -16 -20 -2 0 0 9 6 20 6 11 13 20 16 20 2 0 0 -9 -6 -20z
m-37 -5 c-3 -9 -8 -14 -10 -11 -3 3 -2 9 2 15 9 16 15 13 8 -4z m379 -24 c-9
-22 -19 -38 -20 -36 -6 6 21 75 29 75 4 0 0 -18 -9 -39z m131 32 c-7 -2 -19
-2 -25 0 -7 3 -2 5 12 5 14 0 19 -2 13 -5z m532 -13 c-3 -5 -12 -10 -18 -10
-7 0 -6 4 3 10 19 12 23 12 15 0z m82 -12 c-3 -8 -6 -5 -6 6 -1 11 2 17 5 13
3 -3 4 -12 1 -19z m-1181 -26 c-18 -16 -18 -16 -6 6 6 13 14 21 18 18 3 -4 -2
-14 -12 -24z m1054 18 c-8 -5 -19 -10 -25 -10 -5 0 -3 5 5 10 8 5 20 10 25 10
6 0 3 -5 -5 -10z m167 -22 c-3 -7 -5 -2 -5 12 0 14 2 19 5 13 2 -7 2 -19 0
-25z m-1161 -15 c-8 -15 -15 -25 -16 -21 0 12 23 58 27 54 3 -2 -2 -17 -11
-33z m691 5 c-3 -8 -6 -5 -6 6 -1 11 2 17 5 13 3 -3 4 -12 1 -19z m-250 -4
c-3 -3 -12 -4 -19 -1 -8 3 -5 6 6 6 11 1 17 -2 13 -5z m690 -41 c-3 -10 -5 -2
-5 17 0 19 2 27 5 18 2 -10 2 -26 0 -35z m381 22 c-3 -3 -9 2 -12 12 -6 14 -5
15 5 6 7 -7 10 -15 7 -18z m-1238 -19 c0 -3 -4 -8 -10 -11 -5 -3 -10 -1 -10 4
0 6 5 11 10 11 6 0 10 -2 10 -4z m33 -11 c-3 -9 -8 -14 -10 -11 -3 3 -2 9 2
15 9 16 15 13 8 -4z m339 -4 c-6 -3 -14 -19 -17 -34 -4 -15 -10 -26 -12 -23
-9 9 19 76 29 70 7 -4 7 -9 0 -13z m31 4 c-3 -9 -8 -14 -10 -11 -3 3 -2 9 2
15 9 16 15 13 8 -4z m104 9 c-3 -3 -12 -4 -19 -1 -8 3 -5 6 6 6 11 1 17 -2 13
-5z m438 -20 c2 -11 6 -35 10 -54 5 -30 3 -28 -10 10 -15 45 -20 78 -10 68 3
-3 7 -14 10 -24z m-1242 1 c-3 -9 -8 -14 -10 -11 -3 3 -2 9 2 15 9 16 15 13 8
-4z m47 11 c0 -3 -4 -8 -10 -11 -5 -3 -10 -1 -10 4 0 6 5 11 10 11 6 0 10 -2
10 -4z m80 0 c0 -2 -9 -6 -20 -9 -11 -3 -20 -1 -20 4 0 5 9 9 20 9 11 0 20 -2
20 -4z m73 -3 c-7 -2 -19 -2 -25 0 -7 3 -2 5 12 5 14 0 19 -2 13 -5z m270 0
c-7 -2 -19 -2 -25 0 -7 3 -2 5 12 5 14 0 19 -2 13 -5z m67 -3 c0 -5 -8 -10
-17 -10 -15 0 -16 2 -3 10 19 12 20 12 20 0z m1010 2 c0 -4 -18 -13 -40 -19
-22 -5 -40 -7 -40 -3 0 3 17 11 38 17 20 6 38 11 40 12 1 0 2 -3 2 -7z m-1600
-6 c0 -2 -7 -6 -15 -10 -8 -3 -15 -1 -15 4 0 6 7 10 15 10 8 0 15 -2 15 -4z
m326 -42 c-4 -14 -9 -24 -12 -21 -3 2 -2 17 2 31 3 15 9 25 11 22 3 -3 2 -17
-1 -32z m-327 -18 c-9 -8 -10 -7 -5 7 3 10 7 24 7 30 1 7 3 4 6 -7 3 -10 -1
-23 -8 -30z m371 14 c-5 -3 -16 -33 -25 -65 -11 -42 -14 -48 -10 -20 8 69 26
120 35 104 5 -8 5 -16 0 -19z m31 -1 c-5 -13 -10 -19 -10 -12 -1 15 10 45 15
40 3 -2 0 -15 -5 -28z m-111 9 c0 -4 -7 -8 -15 -8 -8 0 -15 4 -15 8 0 5 7 9
15 9 8 0 15 -4 15 -9z m481 -19 c-9 -22 -10 -22 -10 -3 -1 11 2 24 6 27 12 12
14 0 4 -24z m76 25 c-3 -3 -12 -4 -19 -1 -8 3 -5 6 6 6 11 1 17 -2 13 -5z m40
0 c-3 -3 -12 -4 -19 -1 -8 3 -5 6 6 6 11 1 17 -2 13 -5z m330 -26 c-3 -7 -5
-2 -5 12 0 14 2 19 5 13 2 -7 2 -19 0 -25z m-1242 12 c3 -5 1 -10 -4 -10 -6 0
-11 5 -11 10 0 6 2 10 4 10 3 0 8 -4 11 -10z m210 0 c4 -6 -13 -10 -47 -10
-76 0 -93 17 -19 19 33 1 62 -3 66 -9z m62 4 c-3 -3 -12 -4 -19 -1 -8 3 -5 6
6 6 11 1 17 -2 13 -5z m289 -2 c-5 -8 -76 -4 -76 4 0 2 18 4 41 4 22 0 38 -4
35 -8z m34 -2 c0 -5 -5 -10 -11 -10 -5 0 -7 5 -4 10 3 6 8 10 11 10 2 0 4 -4
4 -10z m100 4 c0 -8 -19 -13 -24 -6 -3 5 1 9 9 9 8 0 15 -2 15 -3z m760 -16
c-25 -11 -53 -25 -62 -29 -11 -6 -18 -5 -18 1 0 5 18 14 40 20 21 6 42 15 45
20 3 6 14 10 23 9 9 0 -3 -10 -28 -21z m-1590 -2 c0 -3 -4 -8 -10 -11 -5 -3
-10 -1 -10 4 0 6 5 11 10 11 6 0 10 -2 10 -4z m34 -4 c3 -5 -1 -9 -9 -9 -8 0
-15 4 -15 9 0 4 4 8 9 8 6 0 12 -4 15 -8z m1686 -2 c-8 -5 -24 -10 -35 -10
-17 0 -17 2 -5 10 8 5 24 10 35 10 17 0 17 -2 5 -10z m-1535 -40 c-4 -17 -9
-29 -12 -26 -3 2 -2 19 2 36 4 17 9 29 12 26 3 -2 2 -19 -2 -36z m702 18 c-3
-8 -6 -5 -6 6 -1 11 2 17 5 13 3 -3 4 -12 1 -19z m-770 -10 c-3 -8 -6 -5 -6 6
-1 11 2 17 5 13 3 -3 4 -12 1 -19z m350 -10 c-3 -7 -5 -2 -5 12 0 14 2 19 5
13 2 -7 2 -19 0 -25z m921 -4 c-3 -14 -5 -12 -10 9 -3 19 -2 25 4 19 6 -6 8
-18 6 -28z m-1243 -24 c-4 -23 -9 -39 -11 -37 -3 2 -2 23 2 46 4 23 9 40 11
37 3 -3 2 -23 -2 -46z m772 28 c-3 -8 -6 -5 -6 6 -1 11 2 17 5 13 3 -3 4 -12
1 -19z m533 -53 c17 -41 73 -256 68 -261 -3 -2 -11 17 -17 43 -24 96 -75 252
-82 248 -3 -3 -4 8 -1 23 l5 27 9 -30 c5 -16 13 -39 18 -50z m146 50 c-27 -14
-51 -23 -53 -21 -5 4 78 45 92 45 6 0 -12 -11 -39 -24z m-74 -140 c48 -160 45
-153 53 -195 6 -40 -16 28 -69 207 -20 67 -36 128 -35 135 1 19 7 2 51 -147z
m-985 108 c-3 -10 -5 -4 -5 12 0 17 2 24 5 18 2 -7 2 -21 0 -30z m-290 11 c-3
-3 -12 -4 -19 -1 -8 3 -5 6 6 6 11 1 17 -2 13 -5z m46 -1 c-7 -2 -19 -2 -25 0
-7 3 -2 5 12 5 14 0 19 -2 13 -5z m164 -25 c-3 -7 -5 -2 -5 12 0 14 2 19 5 13
2 -7 2 -19 0 -25z m450 0 c-3 -7 -5 -2 -5 12 0 14 2 19 5 13 2 -7 2 -19 0 -25z
m-83 -17 c-4 -17 -9 -30 -11 -27 -3 2 -2 19 2 36 4 17 9 30 11 27 2 -2 1 -18
-2 -36z m40 5 c-3 -15 -8 -25 -11 -23 -2 3 -1 17 3 31 3 15 8 25 11 23 2 -3 1
-17 -3 -31z m536 12 c0 -18 -2 -20 -9 -8 -6 8 -7 18 -5 22 9 14 14 9 14 -14z
m-1303 -20 c-3 -8 -6 -5 -6 6 -1 11 2 17 5 13 3 -3 4 -12 1 -19z m-117 -3 c0
-8 -2 -15 -4 -15 -2 0 -6 7 -10 15 -3 8 -1 15 4 15 6 0 10 -7 10 -15z m547 -7
c-3 -8 -6 -5 -6 6 -1 11 2 17 5 13 3 -3 4 -12 1 -19z m-79 -40 c-13 -81 -18
-89 -12 -24 4 53 10 76 18 76 2 0 -1 -24 -6 -52z m39 15 c-3 -10 -5 -4 -5 12
0 17 2 24 5 18 2 -7 2 -21 0 -30z m410 15 c-3 -8 -6 -5 -6 6 -1 11 2 17 5 13
3 -3 4 -12 1 -19z m423 -8 c-8 -5 -17 -7 -19 -4 -3 3 1 9 9 14 8 5 17 7 19 4
3 -3 -1 -9 -9 -14z m102 8 c-5 -5 3 -46 20 -96 15 -48 26 -91 24 -97 -2 -8
-66 180 -66 197 0 3 7 5 15 5 9 0 12 -4 7 -9z m-1260 -25 c-3 -16 -7 -22 -10
-15 -4 13 4 42 11 42 2 0 2 -12 -1 -27z m111 20 c-7 -2 -21 -2 -30 0 -10 3 -4
5 12 5 17 0 24 -2 18 -5z m574 -25 c-3 -8 -6 -5 -6 6 -1 11 2 17 5 13 3 -3 4
-12 1 -19z m-440 -10 c-3 -8 -6 -5 -6 6 -1 11 2 17 5 13 3 -3 4 -12 1 -19z
m108 -28 c-4 -17 -9 -29 -12 -26 -3 2 -2 19 2 36 4 17 9 29 12 26 3 -2 2 -19
-2 -36z m-398 -2 c-3 -7 -5 -2 -5 12 0 14 2 19 5 13 2 -7 2 -19 0 -25z m116
25 c-7 -2 -21 -2 -30 0 -10 3 -4 5 12 5 17 0 24 -2 18 -5z m44 1 c-3 -3 -12
-4 -19 -1 -8 3 -5 6 6 6 11 1 17 -2 13 -5z m200 -26 c-3 -7 -5 -2 -5 12 0 14
2 19 5 13 2 -7 2 -19 0 -25z m354 -24 c-5 -21 -9 -30 -10 -19 -1 24 10 67 15
62 3 -2 0 -22 -5 -43z m-238 29 c-7 -2 -21 -2 -30 0 -10 3 -4 5 12 5 17 0 24
-2 18 -5z m50 0 c-7 -2 -19 -2 -25 0 -7 3 -2 5 12 5 14 0 19 -2 13 -5z m154
-15 c-3 -8 -6 -5 -6 6 -1 11 2 17 5 13 3 -3 4 -12 1 -19z m293 18 c0 -3 -4 -8
-10 -11 -5 -3 -10 -1 -10 4 0 6 5 11 10 11 6 0 10 -2 10 -4z m130 0 c0 -2 -8
-10 -17 -17 -16 -13 -17 -12 -4 4 13 16 21 21 21 13z m-863 -28 c-3 -8 -6 -5
-6 6 -1 11 2 17 5 13 3 -3 4 -12 1 -19z m-344 5 c-7 -2 -19 -2 -25 0 -7 3 -2
5 12 5 14 0 19 -2 13 -5z m859 -20 c-3 -16 -7 -22 -10 -15 -4 13 4 42 11 42 2
0 2 -12 -1 -27z m-407 -38 c-3 -26 -8 -45 -11 -43 -2 3 -1 26 2 52 4 25 9 44
12 42 2 -3 1 -26 -3 -51z m1252 33 c-3 -8 -6 -5 -6 6 -1 11 2 17 5 13 3 -3 4
-12 1 -19z m-1704 -5 c-7 -2 -19 -2 -25 0 -7 3 -2 5 12 5 14 0 19 -2 13 -5z
m488 -29 c-9 -28 -9 -29 -10 -3 -1 14 2 29 6 32 11 12 13 2 4 -29z m283 -17
c-4 -26 -10 -47 -14 -47 -4 0 -3 23 3 50 12 62 19 60 11 -3z m-701 28 c-3 -9
-8 -14 -10 -11 -3 3 -2 9 2 15 9 16 15 13 8 -4z m344 -17 c-3 -7 -5 -2 -5 12
0 14 2 19 5 13 2 -7 2 -19 0 -25z m-224 15 c-7 -2 -19 -2 -25 0 -7 3 -2 5 12
5 14 0 19 -2 13 -5z m614 -35 c-3 -7 -5 -2 -5 12 0 14 2 19 5 13 2 -7 2 -19 0
-25z m286 17 c-3 -9 -8 -14 -10 -11 -3 3 -2 9 2 15 9 16 15 13 8 -4z m-1006
-17 c-3 -8 -6 -5 -6 6 -1 11 2 17 5 13 3 -3 4 -12 1 -19z m-24 -5 c-7 -2 -21
-2 -30 0 -10 3 -4 5 12 5 17 0 24 -2 18 -5z m1058 -24 c-5 -13 -10 -19 -10
-12 -1 15 10 45 15 40 3 -2 0 -15 -5 -28z m-714 -11 c-3 -8 -6 -5 -6 6 -1 11
2 17 5 13 3 -3 4 -12 1 -19z m278 12 c3 -5 1 -10 -4 -10 -6 0 -11 5 -11 10 0
6 2 10 4 10 3 0 8 -4 11 -10z m112 -22 c-3 -7 -5 -2 -5 12 0 14 2 19 5 13 2
-7 2 -19 0 -25z m40 10 c-3 -8 -6 -5 -6 6 -1 11 2 17 5 13 3 -3 4 -12 1 -19z
m123 6 c0 -2 -11 -4 -25 -4 -14 0 -25 4 -25 9 0 4 11 6 25 3 14 -2 25 -6 25
-8z m825 6 c3 -5 1 -10 -4 -10 -6 0 -11 5 -11 10 0 6 2 10 4 10 3 0 8 -4 11
-10z m-1343 -42 c-2 -21 -8 -36 -12 -33 -7 5 -5 28 6 64 8 24 11 7 6 -31z m40
2 c-2 -22 -9 -40 -14 -40 -6 0 -7 7 -4 16 3 9 6 27 6 40 0 13 3 24 8 24 4 0 6
-18 4 -40z m91 33 c-7 -2 -19 -2 -25 0 -7 3 -2 5 12 5 14 0 19 -2 13 -5z
m1157 -13 c-8 -5 -17 -7 -19 -4 -3 3 1 9 9 14 8 5 17 7 19 4 3 -3 -1 -9 -9
-14z m-1487 3 c-7 -2 -19 -2 -25 0 -7 3 -2 5 12 5 14 0 19 -2 13 -5z m1246
-88 c0 -11 -7 0 -15 25 -7 25 -13 52 -13 60 1 21 27 -60 28 -85z m-732 43 c-3
-7 -5 -2 -5 12 0 14 2 19 5 13 2 -7 2 -19 0 -25z m587 16 c3 -8 2 -12 -4 -9
-6 3 -10 10 -10 16 0 14 7 11 14 -7z m326 1 c0 -2 -10 -9 -22 -15 -22 -11 -22
-10 -4 4 21 17 26 19 26 11z m125 -5 c3 -5 1 -10 -4 -10 -6 0 -11 5 -11 10 0
6 2 10 4 10 3 0 8 -4 11 -10z m-1398 -37 c-3 -10 -5 -4 -5 12 0 17 2 24 5 18
2 -7 2 -21 0 -30z m233 27 c0 -5 -5 -10 -11 -10 -5 0 -7 5 -4 10 3 6 8 10 11
10 2 0 4 -4 4 -10z m90 -2 c0 -4 -9 -8 -20 -8 -11 0 -20 4 -20 8 0 4 9 8 20 8
11 0 20 -4 20 -8z m72 -18 c-6 -39 -12 -39 -12 0 0 17 4 30 8 30 5 0 7 -14 4
-30z m40 -5 c-2 -19 -7 -35 -11 -35 -4 0 -5 16 -3 35 2 19 7 35 11 35 4 0 5
-16 3 -35z m163 25 c3 -5 1 -10 -4 -10 -6 0 -11 5 -11 10 0 6 2 10 4 10 3 0 8
-4 11 -10z m65 2 c0 -4 -9 -8 -20 -8 -11 0 -20 4 -20 8 0 4 9 8 20 8 11 0 20
-4 20 -8z m-800 -12 c0 -5 -11 -10 -25 -10 -14 0 -25 5 -25 10 0 6 11 10 25
10 14 0 25 -4 25 -10z m267 4 c-3 -3 -12 -4 -19 -1 -8 3 -5 6 6 6 11 1 17 -2
13 -5z m426 -1 c-13 -2 -35 -2 -50 0 -16 2 -5 4 22 4 28 0 40 -2 28 -4z m412
-13 c-3 -5 -12 -10 -18 -10 -7 0 -6 4 3 10 19 12 23 12 15 0z m331 -5 c-11 -8
-25 -15 -30 -15 -6 1 0 7 14 15 32 19 40 18 16 0z m-1699 -1 c-3 -3 -12 -4
-19 -1 -8 3 -5 6 6 6 11 1 17 -2 13 -5z m93 -11 c0 -11 -3 -14 -8 -7 -4 6 -14
14 -22 17 -10 4 -8 6 8 6 15 1 22 -5 22 -16z"/>
<path d="M2222 905 c0 -16 2 -22 5 -12 2 9 2 23 0 30 -3 6 -5 -1 -5 -18z"/>
<path d="M3192 113 c-18 -59 -30 -109 -27 -111 11 -12 34 10 40 40 4 18 18 63
30 100 13 37 20 69 17 72 -18 18 -32 -6 -60 -101z"/>
</g>
</svg>
